<?xml version="1.0" standalone="no"?>
<!DOCTYPE svg PUBLIC "-//W3C//DTD SVG 20010904//EN"
 "http://www.w3.org/TR/2001/REC-SVG-20010904/DTD/svg10.dtd">
<svg version="1.0" xmlns="http://www.w3.org/2000/svg"
 width="1024.000000pt" height="1024.000000pt" viewBox="0 0 1024.000000 1024.000000"
 preserveAspectRatio="xMidYMid meet">

<g transform="translate(0.000000,1024.000000) scale(0.100000,-0.100000)"
fill="#000000" stroke="none">
<path d="M5365 9680 c-4 -6 -5 -27 -3 -48 l3 -37 -237 -3 -238 -2 0 40 c0 27
-5 43 -15 47 -22 8 -27 0 -32 -52 -5 -38 -9 -45 -28 -45 -12 0 -31 -10 -43
-23 -19 -20 -22 -36 -24 -157 l-3 -135 -85 -8 c-527 -46 -954 -163 -1406 -385
-325 -160 -637 -373 -912 -622 l-122 -111 -133 2 c-201 3 -203 0 -205 -235
l-2 -159 -118 -156 c-274 -361 -452 -670 -597 -1036 -111 -282 -169 -482 -219
-760 -38 -210 -46 -311 -53 -652 l-6 -313 -83 0 -84 0 0 -285 0 -285 -70 0
c-63 0 -70 -2 -70 -20 0 -19 7 -20 209 -20 l209 0 22 -97 c70 -314 154 -586
250 -808 l52 -120 -2 -437 c-2 -412 -1 -439 18 -480 26 -59 65 -103 121 -136
l46 -27 -250 -5 c-228 -5 -250 -7 -253 -22 -3 -17 31 -18 615 -18 l619 0 36
-48 c87 -112 339 -340 522 -471 570 -408 1265 -654 2011 -711 215 -16 199 -10
256 -98 28 -42 53 -78 57 -79 4 -1 29 34 57 77 l49 79 51 5 c27 3 124 12 215
21 389 37 784 131 1160 278 401 157 932 494 1262 804 l79 73 109 0 108 0 12
-36 c43 -128 194 -168 299 -78 49 42 65 88 56 159 -12 100 -74 155 -173 155
-91 0 -153 -45 -168 -119 -7 -31 -20 -48 -31 -38 -3 3 2 28 11 55 16 48 59 98
104 121 30 16 111 16 156 1 63 -20 126 -112 126 -182 0 -16 12 -18 103 -18 56
0 107 4 113 8 18 11 22 84 7 119 -7 18 -13 52 -13 75 -1 55 -29 117 -69 151
-21 17 -80 42 -164 68 -73 23 -135 44 -139 48 -4 3 17 38 47 76 126 164 342
556 463 840 93 220 151 405 244 778 l9 37 239 0 c207 0 240 2 240 15 0 11 -12
15 -40 16 -22 1 -49 3 -60 4 -11 1 -24 3 -30 4 -6 1 -10 152 -10 431 l0 430
-98 0 -99 0 -7 128 c-39 742 -271 1440 -700 2105 -20 31 -35 57 -34 57 2 0 84
16 182 35 186 35 217 48 246 98 31 55 -14 102 -174 183 -136 70 -280 89 -439
59 -43 -8 -80 -15 -81 -15 -2 0 -40 45 -86 101 -222 269 -661 641 -979 831
-147 87 -449 238 -556 277 -436 160 -745 238 -1090 274 l-120 12 -5 142 c-5
155 -9 164 -72 178 -24 6 -27 12 -30 52 -3 45 -19 66 -33 43z m95 -145 c8 -10
10 -34 5 -80 -6 -55 -10 -65 -26 -65 -12 0 -19 7 -19 19 0 30 11 51 26 51 22
0 16 18 -8 26 -41 13 -610 9 -635 -4 -21 -12 -23 -11 -23 16 0 15 5 33 12 40
9 9 97 12 334 12 269 0 324 -2 334 -15z m-576 -104 c-36 -36 -40 -38 -46 -19
-13 33 8 58 48 58 l36 0 -38 -39z m386 20 c114 -59 165 -231 106 -356 -51
-110 -113 -144 -256 -145 -79 0 -103 4 -145 24 -95 44 -135 113 -135 230 1
150 50 227 165 257 45 12 236 5 265 -10z m-452 -29 c3 -27 0 -32 -17 -32 -16
0 -21 6 -21 28 0 53 33 56 38 4z m586 8 c-4 -19 -1 -36 7 -47 29 -35 -9 -6
-45 35 l-38 42 41 0 c40 0 40 -1 35 -30z m64 -110 c2 -34 -1 -40 -17 -40 -12
0 -21 9 -25 26 -4 15 -6 27 -4 28 4 2 43 25 43 25 0 1 1 -17 3 -39z m-652 14
c-3 -9 -6 -22 -6 -30 0 -8 -7 -14 -15 -14 -10 0 -15 10 -15 30 0 24 4 30 21
30 15 0 19 -4 15 -16z m-6 -104 c0 -20 -5 -30 -15 -30 -10 0 -15 10 -15 30 0
20 5 30 15 30 10 0 15 -10 15 -30z m650 -9 c0 -17 -4 -33 -10 -36 -6 -4 -10 8
-10 29 0 20 5 36 10 36 6 0 10 -13 10 -29z m-710 -110 c0 -95 3 -123 16 -135
20 -20 53 -21 60 -1 8 20 38 19 69 -1 39 -25 30 -34 -35 -34 -33 0 -60 -4 -60
-10 0 -6 48 -10 123 -11 67 0 217 -2 332 -4 177 -2 213 0 228 13 15 13 17 34
17 155 l0 140 110 -7 c318 -19 797 -142 1160 -297 343 -148 698 -368 983 -611
137 -117 391 -366 477 -467 56 -67 61 -76 44 -83 -34 -14 -483 -86 -504 -81
-17 5 -17 7 -5 20 23 23 19 79 -7 97 -33 24 -64 19 -88 -11 -16 -20 -20 -37
-17 -60 5 -30 4 -31 -17 -23 -60 23 -292 144 -302 159 -11 14 -14 14 -31 -1
-10 -9 -39 -26 -65 -37 -45 -19 -64 -41 -35 -41 15 0 115 -66 157 -103 20 -18
30 -36 30 -56 l0 -29 -112 -17 c-62 -9 -184 -30 -272 -46 -87 -16 -164 -25
-171 -21 -7 4 -67 55 -132 113 -65 58 -164 145 -221 193 l-103 87 -55 -12
c-30 -7 -54 -18 -54 -25 0 -6 38 -89 85 -183 92 -185 110 -239 97 -286 -9 -32
-28 -41 -145 -65 -47 -9 -60 -17 -72 -40 -31 -60 -26 -61 166 -22 120 25 139
26 168 14 45 -18 325 -88 386 -96 37 -5 139 5 372 38 176 25 331 46 343 46 22
0 22 0 4 -27 -41 -63 -264 -505 -259 -514 4 -5 32 -9 63 -8 l57 0 299 308 298
308 216 32 c177 27 217 31 223 19 4 -7 24 -38 43 -68 140 -221 307 -532 381
-711 73 -175 167 -469 210 -656 46 -197 91 -542 97 -738 l3 -90 -57 -3 -58 -3
-2 193 -3 193 -108 3 c-104 3 -108 3 -106 25 1 12 1 58 0 102 -1 60 -4 76 -12
65 -9 -12 -10 -11 -6 8 3 12 1 22 -4 22 -30 0 -43 -185 -14 -196 34 -13 -1
-24 -80 -24 -46 0 -90 -3 -99 -6 -14 -6 -16 -69 -16 -615 0 -506 -2 -609 -14
-609 -10 0 -14 40 -20 188 -3 103 -4 234 -1 291 4 70 2 108 -6 117 -9 11 -64
14 -290 14 l-279 0 0 -320 0 -321 -670 3 -669 3 29 23 c17 13 30 31 30 40 0
10 9 23 21 30 11 7 27 29 35 48 l14 34 203 0 c219 0 270 8 380 57 63 28 97 63
97 98 0 35 -81 139 -199 255 -128 127 -199 182 -326 256 -122 70 -170 91 -275
117 -85 21 -87 21 -1995 24 l-1910 3 -40 -23 c-63 -35 -71 -63 -94 -321 -30
-332 -28 -357 33 -424 43 -49 62 -52 276 -52 l200 0 0 -46 c0 -37 5 -51 29
-75 25 -24 37 -29 80 -29 50 0 91 23 91 50 0 6 16 10 35 10 28 0 38 -5 47 -25
23 -51 131 -51 158 0 20 37 69 35 98 -5 13 -16 29 -30 37 -30 7 0 16 -4 19 -9
6 -10 -1720 -8 -1730 2 -8 7 9 11 39 8 16 -2 17 17 17 278 l0 281 -257 2 -258
3 -3 138 -3 137 -242 -2 -242 -3 -3 -137 -3 -138 -125 0 -126 0 5 358 c5 408
15 489 90 803 106 436 268 823 502 1199 86 137 244 360 334 470 l20 25 3 -330
3 -330 176 -3 176 -2 6 53 c22 216 258 307 407 158 46 -47 80 -119 80 -173 0
-17 24 -18 525 -18 l525 0 0 23 c0 60 32 132 79 177 144 140 359 62 389 -142
9 -64 12 -66 181 -67 l124 -1 -6 161 c-5 148 -8 166 -32 216 -18 35 -40 63
-66 80 -34 23 -54 56 -179 307 -85 169 -153 292 -170 308 -48 45 -82 49 -374
41 l-269 -6 -23 28 -22 28 -33 -24 -34 -24 -528 -1 c-290 -1 -527 2 -525 7 13
34 324 287 518 421 435 299 976 520 1490 608 125 21 341 47 413 49 l37 1 0
-119z m58 15 c-2 -15 -7 -28 -13 -29 -12 -2 -19 38 -10 60 9 25 27 1 23 -31z
m660 2 c-3 -36 -30 -46 -36 -15 -5 26 5 47 23 47 12 0 15 -8 13 -32z m-654
-74 c3 -8 10 -13 14 -10 5 3 20 -6 32 -19 20 -21 21 -25 7 -25 -9 0 -17 7 -17
15 0 17 -16 20 -25 5 -3 -5 -15 -10 -26 -10 -13 0 -19 7 -19 23 0 37 23 51 34
21z m652 4 c4 -6 -3 -19 -16 -30 -28 -22 -33 -19 -24 16 6 27 28 35 40 14z
m-70 -45 c-13 -14 -25 9 -13 28 12 20 12 20 15 -1 2 -12 1 -24 -2 -27z m9 -47
c8 -21 8 -21 12 2 7 33 53 31 53 -3 0 -24 -2 -25 -67 -25 -82 0 -105 11 -74
32 32 23 68 20 76 -6z m-1361 -870 c29 -12 86 -84 86 -109 0 -4 -497 -7 -1105
-7 l-1105 0 0 45 c0 32 6 51 20 65 20 20 33 20 1045 20 860 0 1031 -2 1059
-14z m-1534 -356 l0 -210 -295 0 -295 0 0 210 0 210 295 0 295 0 0 -210z m470
0 l0 -210 -217 2 -218 3 -3 125 c-2 69 0 162 3 208 l7 82 214 0 214 0 0 -210z
m781 15 l-4 -190 27 -32 27 -32 284 -3 283 -3 39 -31 c41 -33 83 -89 83 -110
0 -8 -8 -14 -18 -14 -36 0 -42 -20 -42 -147 l0 -123 -74 0 -74 0 -11 50 c-30
141 -130 224 -266 223 -129 -1 -224 -83 -260 -223 l-11 -45 -362 -3 -362 -2 0
440 0 440 373 -2 372 -3 -4 -190z m489 -5 c55 -110 100 -204 100 -210 0 -6
-89 -10 -253 -10 -212 0 -256 2 -275 16 -21 15 -22 20 -22 203 0 103 3 191 7
194 3 4 82 7 175 7 l168 0 100 -200z m2344 -86 c264 -232 228 -207 288 -195
29 6 195 36 368 65 401 69 762 134 1058 193 250 48 267 49 402 16 72 -17 133
-46 228 -105 66 -42 74 -60 44 -98 -15 -18 -56 -29 -262 -70 -135 -26 -317
-58 -405 -70 -88 -12 -170 -24 -181 -26 -12 -2 -151 -138 -314 -306 -270 -281
-334 -338 -355 -316 -5 5 213 433 256 504 21 34 25 64 9 64 -5 0 -146 -21
-312 -46 -430 -65 -435 -65 -647 -14 -115 28 -169 45 -160 51 8 5 24 9 36 9
36 0 103 31 114 52 13 24 -6 51 -30 43 -9 -2 -56 -12 -106 -20 -49 -9 -99 -18
-110 -21 -19 -5 -21 -1 -20 55 0 55 -6 72 -92 243 -51 101 -81 170 -68 153 14
-16 58 -96 99 -177 69 -138 86 -161 86 -117 0 23 -66 166 -114 248 -45 77 -46
94 -3 55 17 -17 103 -93 191 -170z m890 72 c89 -40 170 -77 181 -81 14 -5 -19
-15 -105 -31 -69 -13 -126 -24 -127 -24 -2 0 -3 10 -3 21 0 37 -37 84 -101
129 -45 31 -57 45 -47 51 23 15 39 10 202 -65z m261 16 c9 -23 -21 -49 -42
-36 -24 15 -26 29 -8 47 18 18 40 13 50 -11z m-4765 -467 l0 -215 -105 0 c-76
0 -107 4 -109 13 -2 6 -10 33 -16 60 -15 56 -73 126 -136 163 -53 31 -147 42
-210 25 -93 -25 -177 -124 -190 -223 l-7 -48 -72 0 -72 0 -7 62 c-5 52 -12 68
-38 95 -23 24 -41 33 -65 33 l-33 0 0 125 0 125 530 0 530 0 0 -215z m3739 80
c-3 -2 -97 -23 -210 -45 -112 -22 -215 -43 -229 -46 -22 -5 -23 -4 -10 9 13
13 107 34 345 76 57 10 111 13 104 6z m-2205 -132 c8 -96 8 -158 0 -166 -4 -3
-15 -2 -25 4 -17 9 -19 22 -19 118 0 59 3 111 7 114 20 21 31 2 37 -70z
m-2531 -27 c26 -20 21 -26 -23 -26 -33 0 -40 3 -40 20 0 24 35 27 63 6z m35
-97 c3 -52 -7 -60 -66 -51 -31 4 -32 6 -32 54 l0 49 48 -3 47 -3 3 -46z m6847
-1636 c-47 -3 -82 -9 -87 -16 -5 -8 -8 -6 -8 6 0 15 10 17 88 15 l87 -2 -80
-3z m293 -145 l-2 -153 -3 147 -4 147 -102 4 -102 3 108 2 107 2 -2 -152z
m-328 94 c0 -15 -6 -34 -12 -41 -10 -11 -10 -14 0 -18 18 -7 16 -73 -3 -73
-12 0 -15 16 -15 80 0 64 3 80 15 80 10 0 15 -10 15 -28z m100 -2 c0 -28 -3
-30 -35 -30 -32 0 -35 2 -35 30 0 28 3 30 35 30 32 0 35 -2 35 -30z m100 0 c0
-28 -3 -30 -35 -30 -32 0 -35 2 -35 30 0 28 3 30 35 30 32 0 35 -2 35 -30z
m90 0 c0 -28 -3 -30 -35 -30 -32 0 -35 2 -35 30 0 28 3 30 35 30 32 0 35 -2
35 -30z m-343 -42 c-2 -13 -4 -3 -4 22 0 25 2 35 4 23 2 -13 2 -33 0 -45z
m153 -53 c0 -33 -2 -35 -34 -35 -25 0 -36 5 -38 18 -8 36 3 52 38 52 32 0 34
-2 34 -35z m100 0 c0 -33 -2 -35 -35 -35 -33 0 -35 2 -35 35 0 33 2 35 35 35
33 0 35 -2 35 -35z m90 0 c0 -33 -2 -35 -35 -35 -33 0 -35 2 -35 35 0 33 2 35
35 35 33 0 35 -2 35 -35z m-290 -99 c0 -16 -6 -26 -15 -26 -11 0 -15 11 -15
41 0 36 2 39 15 25 8 -8 15 -26 15 -40z m290 9 c0 -33 -2 -35 -35 -35 -32 0
-35 3 -35 28 0 16 3 32 7 35 3 4 19 7 35 7 25 0 28 -3 28 -35z m-190 -5 c0
-28 -2 -30 -40 -30 -38 0 -40 2 -40 30 0 28 2 30 40 30 38 0 40 -2 40 -30z
m100 0 c0 -28 -3 -30 -35 -30 -32 0 -35 2 -35 30 0 28 3 30 35 30 32 0 35 -2
35 -30z m-2284 -45 c43 -8 93 -20 112 -26 l34 -11 -21 -22 c-30 -32 -51 -90
-51 -141 0 -97 53 -165 173 -223 137 -66 308 -116 467 -136 83 -10 95 -14 98
-32 4 -29 -37 -62 -115 -92 l-68 -26 -600 -8 c-330 -4 -1243 -7 -2030 -6 -786
0 -1531 1 -1654 0 -248 -2 -254 -1 -291 61 -16 26 -20 49 -19 122 1 50 5 117
9 150 l7 60 2 -57 1 -58 315 0 315 0 0 -110 0 -110 130 0 130 0 0 108 0 109
617 6 c339 4 955 7 1370 7 l753 0 0 -107 c0 -60 4 -114 8 -121 7 -9 39 -12
128 -10 l119 3 3 271 c2 221 0 273 -12 283 -20 16 -3837 16 -3847 0 -4 -7 -11
-57 -15 -113 -4 -56 -9 -93 -11 -84 -8 32 15 255 27 275 7 11 25 27 39 36 24
15 195 16 1913 17 1632 0 1897 -2 1964 -15z m2084 -51 c0 -24 -5 -34 -15 -34
-11 0 -15 11 -15 40 0 31 3 38 15 34 9 -4 15 -19 15 -40z m100 0 c0 -35 -1
-35 -37 -32 -35 3 -38 6 -41 36 -3 31 -2 32 37 32 40 0 41 -1 41 -36z m98 4
c-3 -29 -6 -33 -33 -33 -27 0 -30 4 -33 33 -3 31 -2 32 33 32 35 0 36 -1 33
-32z m92 -1 c0 -30 -2 -33 -32 -32 -30 0 -33 3 -36 33 -3 31 -2 32 32 32 34 0
36 -2 36 -33z m37 -89 c-2 -24 -4 -5 -4 42 0 47 2 66 4 43 2 -24 2 -62 0 -85z
m-2205 66 c4 -3 -3 -26 -14 -51 -41 -93 -3 -170 109 -224 52 -25 81 -32 132
-33 71 -1 126 16 136 42 5 13 26 -4 95 -78 l88 -95 -43 -3 c-47 -3 -241 42
-335 79 -97 37 -190 91 -220 127 -52 63 -51 147 2 208 30 34 39 39 50 28z
m136 -68 c123 -76 192 -134 192 -161 0 -36 -32 -48 -110 -43 -114 8 -210 75
-210 147 0 36 29 101 45 101 6 0 43 -20 83 -44z m2417 -773 c-2 -7 -8 -13 -12
-13 -10 0 -6 730 4 790 5 26 9 -129 11 -360 1 -223 0 -411 -3 -417z m-7867
655 l-2 -153 -3 148 -4 147 -199 0 -199 0 -4 -57 -3 -58 -2 63 -2 62 210 0
210 0 -2 -152z m7192 117 c0 -24 -5 -35 -15 -35 -10 0 -15 11 -15 35 0 24 5
35 15 35 10 0 15 -11 15 -35z m100 0 c0 -34 -1 -35 -40 -35 -37 0 -40 2 -40
28 0 37 6 42 47 42 31 0 33 -2 33 -35z m100 0 c0 -33 -2 -35 -35 -35 -33 0
-35 2 -35 35 0 33 2 35 35 35 33 0 35 -2 35 -35z m90 0 c0 -33 -2 -35 -35 -35
-32 0 -35 3 -35 28 0 36 6 42 42 42 25 0 28 -3 28 -35z m155 -5 c0 -21 -5 -26
-32 -28 -31 -3 -33 -1 -33 28 0 29 2 31 33 28 27 -2 32 -7 32 -28z m85 -1 c0
-28 -2 -30 -32 -27 -32 3 -34 7 -29 48 0 6 15 10 31 10 27 0 30 -3 30 -31z
m98 -1 c3 -26 1 -28 -32 -28 -33 0 -36 2 -36 31 0 28 2 30 33 27 27 -2 33 -8
35 -30z m-6468 -88 l0 -101 -72 3 -73 3 2 75 c4 121 3 120 78 120 l65 0 0
-100z m218 20 c5 -121 5 -120 -88 -120 -97 0 -100 4 -100 120 l0 81 93 -3 92
-3 3 -75z m212 -20 l0 -101 -87 3 -88 3 -3 98 -3 97 91 0 90 0 0 -100z m230
-145 l0 -245 -95 0 -95 0 0 245 0 245 95 0 95 0 0 -245z m120 144 l0 -100 -37
3 -38 3 -3 84 c-2 46 -1 90 2 98 3 7 20 13 41 13 l35 0 0 -101z m230 1 l0
-101 -92 3 -93 3 -3 75 c-5 123 -7 120 98 120 l90 0 0 -100z m228 3 l-3 -98
-90 0 -90 0 -3 98 -3 97 96 0 96 0 -3 -97z m220 0 l-3 -98 -79 -3 c-44 -2 -83
1 -88 6 -10 10 -23 155 -15 176 5 13 24 16 97 16 l91 0 -3 -97z m216 81 c12
-32 6 -161 -8 -173 -9 -8 -43 -11 -93 -9 l-78 3 -3 75 c-5 122 -6 120 92 120
67 0 85 -3 90 -16z m224 -81 l-3 -98 -90 0 -90 0 -3 98 -3 97 96 0 96 0 -3
-97z m220 15 c4 -114 -1 -119 -101 -116 l-82 3 -3 84 c-2 46 0 91 2 98 4 11
26 13 93 11 l88 -3 3 -77z m212 -18 l0 -101 -87 3 -88 3 -3 98 -3 97 91 0 90
0 0 -100z m220 0 l0 -101 -87 3 -88 3 -3 98 -3 97 91 0 90 0 0 -100z m225 0
l0 -95 -90 0 -90 0 -3 98 -3 98 93 -3 93 -3 0 -95z m216 98 c5 -25 9 -157 4
-175 -5 -23 -8 -24 -93 -21 l-87 3 -3 98 -3 97 91 0 c49 0 90 -1 91 -2z m227
-68 c2 -36 0 -80 -3 -97 l-6 -33 -89 0 -90 0 0 100 0 101 93 -3 92 -3 3 -65z
m222 -30 l0 -100 -95 0 -95 0 0 100 0 100 95 0 95 0 0 -100z m210 80 c7 -12 9
-101 8 -247 l-3 -228 -87 -3 -88 -3 0 251 0 250 80 0 c69 0 81 -3 90 -20z
m-5388 -77 c3 -40 1 -73 -4 -73 -4 0 -8 35 -8 77 0 95 7 92 12 -4z m78 47 c0
-27 -3 -30 -30 -30 -27 0 -30 3 -30 30 0 27 3 30 30 30 27 0 30 -3 30 -30z
m70 0 c0 -27 -3 -30 -30 -30 -27 0 -30 3 -30 30 0 27 3 30 30 30 27 0 30 -3
30 -30z m70 0 c0 -27 -3 -30 -30 -30 -27 0 -30 3 -30 30 0 27 3 30 30 30 27 0
30 -3 30 -30z m70 0 c0 -27 -3 -30 -30 -30 -27 0 -30 3 -30 30 0 27 3 30 30
30 27 0 30 -3 30 -30z m70 0 c0 -25 -4 -30 -25 -30 -21 0 -25 5 -25 30 0 25 4
30 25 30 21 0 25 -5 25 -30z m7568 -357 c-1 -290 -3 -337 -8 -223 -14 274 -10
590 6 590 2 0 3 -165 2 -367z m-21 335 c-3 -8 -6 -5 -6 6 -1 11 2 17 5 13 3
-3 4 -12 1 -19z m-329 -26 c2 -24 -1 -32 -12 -32 -12 0 -16 10 -16 36 0 45 24
42 28 -4z m102 3 c0 -34 -1 -35 -40 -35 -37 0 -40 2 -40 28 0 37 6 42 47 42
31 0 33 -2 33 -35z m98 -2 c3 -32 2 -33 -32 -33 -35 0 -36 1 -36 36 0 34 1 35
33 32 28 -3 32 -7 35 -35z m90 -1 c3 -31 2 -32 -32 -32 -33 0 -36 3 -36 28 0
36 5 41 38 39 23 -2 28 -8 30 -35z m152 3 c0 -32 -2 -35 -30 -35 -28 0 -30 3
-30 35 0 32 2 35 30 35 28 0 30 -3 30 -35z m90 0 c0 -32 -2 -35 -30 -35 -28 0
-30 3 -30 35 0 32 2 35 30 35 28 0 30 -3 30 -35z m100 0 c0 -33 -2 -35 -35
-35 -33 0 -35 2 -35 35 0 33 2 35 35 35 33 0 35 -2 35 -35z m-683 -507 c-1
-95 -3 -18 -3 172 0 190 2 267 3 173 2 -95 2 -251 0 -345z m-7239 465 c3 -31
1 -33 -27 -33 -27 0 -31 3 -31 28 0 35 8 44 35 40 15 -2 21 -12 23 -35z m70 0
c3 -30 1 -33 -22 -33 -23 0 -26 4 -26 36 0 31 3 35 23 32 17 -2 23 -11 25 -35z
m-278 -3 c0 -27 -3 -30 -30 -30 -27 0 -30 3 -30 30 0 27 3 30 30 30 27 0 30
-3 30 -30z m68 3 c-2 -22 -9 -29 -30 -31 -25 -3 -28 0 -28 27 0 28 3 31 31 31
27 0 30 -3 27 -27z m72 -3 c0 -27 -3 -30 -30 -30 -27 0 -30 3 -30 30 0 27 3
30 30 30 27 0 30 -3 30 -30z m7360 -45 c0 -24 -5 -35 -15 -35 -15 0 -22 50 -8
63 15 15 23 5 23 -28z m100 0 c0 -34 -1 -35 -40 -35 -37 0 -40 2 -40 28 0 37
6 42 47 42 31 0 33 -2 33 -35z m98 -2 c3 -32 2 -33 -32 -33 -35 0 -36 1 -36
36 0 34 1 35 33 32 28 -3 32 -7 35 -35z m90 -1 c3 -31 2 -32 -32 -32 -33 0
-36 3 -36 28 0 36 5 41 38 39 23 -2 28 -8 30 -35z m152 9 c0 -19 -6 -30 -17
-33 -30 -8 -43 2 -43 33 0 26 4 29 30 29 26 0 30 -3 30 -29z m88 -3 c-2 -28
-8 -34 -30 -36 -26 -3 -28 -1 -28 32 0 33 2 36 31 36 28 0 30 -2 27 -32z m102
2 c0 -28 -3 -30 -35 -30 -32 0 -35 2 -35 30 0 28 3 30 35 30 32 0 35 -2 35
-30z m-8207 -35 c-7 -21 -13 -19 -13 6 0 11 4 18 10 14 5 -3 7 -12 3 -20z m75
-15 c2 -28 0 -32 -8 -17 -6 9 -20 17 -30 17 -14 0 -20 7 -20 21 0 16 5 20 28
17 23 -3 27 -8 30 -38z m62 4 c0 -31 -3 -35 -22 -32 -39 5 -37 68 2 68 16 0
20 -6 20 -36z m75 1 c0 -25 -4 -30 -27 -33 -25 -3 -28 0 -28 26 0 35 8 44 35
40 15 -2 20 -10 20 -33z m73 -2 c3 -31 1 -33 -27 -33 -29 0 -31 3 -31 36 0 33
2 35 28 32 22 -2 28 -8 30 -35z m72 2 c0 -31 -3 -35 -25 -35 -22 0 -25 4 -25
35 0 31 3 35 25 35 22 0 25 -4 25 -35z m6843 28 c-7 -2 -19 -2 -25 0 -7 3 -2
5 12 5 14 0 19 -2 13 -5z m75 0 c-10 -2 -28 -2 -40 0 -13 2 -5 4 17 4 22 1 32
-1 23 -4z m95 0 c-13 -2 -35 -2 -50 0 -16 2 -5 4 22 4 28 0 40 -2 28 -4z
m-456 -301 c-1 -53 -3 -7 -3 103 0 110 2 154 3 97 2 -57 2 -147 0 -200z m88
263 c0 -14 -8 -21 -27 -23 -24 -3 -28 0 -28 23 0 23 4 26 28 23 19 -2 27 -9
27 -23z m75 0 c0 -20 -5 -25 -25 -25 -20 0 -25 5 -25 25 0 20 5 25 25 25 20 0
25 -5 25 -25z m80 0 c0 -20 -5 -25 -25 -25 -20 0 -25 5 -25 25 0 20 5 25 25
25 20 0 25 -5 25 -25z m80 0 c0 -20 -5 -25 -25 -25 -20 0 -25 5 -25 25 0 20 5
25 25 25 20 0 25 -5 25 -25z m90 -5 c0 -16 -7 -20 -30 -20 -23 0 -30 4 -30 20
0 16 7 20 30 20 23 0 30 -4 30 -20z m90 0 c0 -16 -7 -20 -35 -20 -28 0 -35 4
-35 20 0 16 7 20 35 20 28 0 35 -4 35 -20z m160 -41 c0 -19 -5 -29 -15 -29
-15 0 -22 50 -9 63 12 12 24 -4 24 -34z m100 6 c0 -34 -1 -35 -40 -35 -39 0
-40 1 -40 35 0 34 1 35 40 35 39 0 40 -1 40 -35z m98 -2 c3 -32 2 -33 -32 -33
-35 0 -36 1 -36 36 0 34 1 35 33 32 28 -3 32 -7 35 -35z m92 2 c0 -33 -2 -35
-35 -35 -32 0 -35 3 -35 28 0 36 6 42 42 42 25 0 28 -3 28 -35z m150 0 c0 -32
-2 -35 -30 -35 -28 0 -30 3 -30 35 0 32 2 35 30 35 28 0 30 -3 30 -35z m90 0
c0 -32 -2 -35 -30 -35 -28 0 -30 3 -30 35 0 32 2 35 30 35 28 0 30 -3 30 -35z
m100 0 c0 -33 -2 -35 -35 -35 -33 0 -35 2 -35 35 0 33 2 35 35 35 33 0 35 -2
35 -35z m-7310 -178 c3 -109 2 -206 -2 -215 -4 -9 -7 78 -7 193 l-1 210 -240
-5 c-218 -5 -265 -2 -227 13 6 3 116 5 242 4 l230 -2 5 -198z m-1127 186
l-271 -3 3 -98 c3 -80 2 -88 -5 -42 -4 30 -8 76 -9 103 l-1 47 278 -2 277 -3
-272 -2z m307 -54 c0 -22 -4 -38 -8 -35 -8 5 -4 76 4 76 2 0 4 -18 4 -41z m60
0 c0 -36 -2 -40 -22 -37 -40 5 -37 78 2 78 17 0 20 -6 20 -41z m75 1 c0 -31
-3 -35 -25 -35 -19 0 -26 6 -28 23 -5 36 5 54 30 50 19 -2 23 -9 23 -38z m70
0 c0 -31 -3 -35 -25 -35 -19 0 -26 6 -28 23 -5 36 5 54 30 50 19 -2 23 -9 23
-38z m73 -3 c3 -34 1 -37 -22 -37 -24 0 -26 4 -26 40 0 36 2 40 23 36 17 -2
23 -10 25 -39z m6652 2 c0 -26 -4 -29 -30 -29 -26 0 -30 4 -30 28 0 36 5 40
35 34 20 -3 25 -10 25 -33z m-6492 -6 c3 -32 2 -33 -32 -33 -33 0 -36 3 -36
28 0 36 8 44 40 40 20 -2 26 -9 28 -35z m80 -1 c3 -32 2 -33 -30 -30 -27 2
-33 7 -34 28 -1 36 4 42 34 38 22 -2 28 -9 30 -36z m82 3 c0 -32 -2 -35 -30
-35 -28 0 -30 3 -30 35 0 32 2 35 30 35 28 0 30 -3 30 -35z m88 -2 c3 -32 2
-33 -32 -33 -33 0 -36 3 -36 28 0 36 8 44 40 40 20 -2 26 -9 28 -35z m97 2 c0
-27 -3 -30 -37 -33 -36 -3 -38 -2 -38 26 0 37 7 44 45 40 26 -3 30 -7 30 -33z
m6215 5 c0 -25 -4 -30 -25 -30 -21 0 -25 5 -25 30 0 25 4 30 25 30 21 0 25 -5
25 -30z m80 0 c0 -25 -4 -30 -25 -30 -21 0 -25 5 -25 30 0 25 4 30 25 30 21 0
25 -5 25 -30z m80 0 c0 -25 -4 -30 -25 -30 -21 0 -25 5 -25 30 0 25 4 30 25
30 21 0 25 -5 25 -30z m90 0 c0 -27 -3 -30 -30 -30 -27 0 -30 3 -30 30 0 27 3
30 30 30 27 0 30 -3 30 -30z m90 0 c0 -28 -3 -30 -35 -30 -32 0 -35 2 -35 30
0 28 3 30 35 30 32 0 35 -2 35 -30z m-7840 -10 c0 -25 -4 -30 -25 -30 -21 0
-25 5 -25 30 0 25 4 30 25 30 21 0 25 -5 25 -30z m80 -6 c0 -33 -2 -35 -27
-32 -23 2 -29 8 -31 36 -3 30 -1 32 27 32 29 0 31 -3 31 -36z m90 1 c0 -32 -2
-35 -29 -35 -32 0 -40 12 -33 47 3 18 11 23 33 23 26 0 29 -3 29 -35z m88 3
c-3 -29 -6 -33 -33 -33 -27 0 -30 4 -33 33 -3 31 -2 32 33 32 35 0 36 -1 33
-32z m82 -3 c0 -32 -2 -35 -30 -35 -28 0 -30 3 -30 35 0 32 2 35 30 35 28 0
30 -3 30 -35z m90 0 c0 -33 -2 -35 -35 -35 -33 0 -35 2 -35 35 0 33 2 35 35
35 33 0 35 -2 35 -35z m631 -445 c165 0 228 -3 223 -11 -5 -8 -195 -10 -686
-5 -374 3 -683 8 -686 11 -7 7 -3 7 299 6 l267 -1 6 22 c3 13 6 101 6 196 l0
172 113 -2 112 -2 -107 -3 -108 -4 0 -167 c0 -92 -3 -177 -6 -190 l-6 -23 163
3 164 3 0 90 c1 50 3 151 5 225 4 115 5 102 7 -92 l3 -228 231 0z m6939 366
c0 -44 -5 -77 -12 -84 -10 -10 -10 -15 -1 -20 15 -10 15 -254 -1 -249 -11 4
-20 394 -10 425 10 34 24 -6 24 -72z m440 49 c0 -32 -2 -35 -30 -35 -26 0 -30
4 -30 28 0 35 6 42 37 42 20 0 23 -5 23 -35z m90 0 c0 -32 -2 -35 -30 -35 -28
0 -30 3 -30 35 0 32 2 35 30 35 28 0 30 -3 30 -35z m100 0 c0 -33 -2 -35 -35
-35 -33 0 -35 2 -35 35 0 33 2 35 35 35 33 0 35 -2 35 -35z m-530 -11 c0 -35
-1 -35 -37 -32 -35 3 -38 6 -41 36 -3 31 -2 32 37 32 40 0 41 -1 41 -36z m98
4 c-3 -29 -7 -33 -35 -36 -32 -3 -33 -2 -33 32 0 35 1 36 36 36 34 0 35 -1 32
-32z m92 -4 c0 -34 -1 -35 -32 -32 -29 3 -33 7 -36 36 -3 31 -2 32 32 32 35 0
36 -1 36 -36z m-862 -31 c-2 -22 -9 -29 -30 -31 -25 -3 -28 0 -28 27 0 28 3
31 31 31 27 0 30 -3 27 -27z m77 -3 c0 -20 -6 -26 -27 -28 -25 -3 -28 0 -28
28 0 28 3 31 28 28 21 -2 27 -8 27 -28z m82 3 c-2 -22 -8 -29 -30 -31 -24 -3
-27 0 -27 27 0 28 3 31 29 31 26 0 30 -3 28 -27z m73 -4 c0 -26 -3 -30 -22
-27 -17 2 -24 11 -26 31 -3 23 0 27 22 27 22 0 26 -4 26 -31z m88 4 c-2 -22
-9 -29 -30 -31 -25 -3 -28 0 -28 27 0 28 3 31 31 31 27 0 30 -3 27 -27z m90 0
c-3 -24 -8 -28 -33 -28 -25 0 -30 4 -33 28 -3 25 -1 27 33 27 34 0 36 -2 33
-27z m-7838 -18 c0 -31 -3 -35 -25 -35 -21 0 -25 5 -25 29 0 23 5 31 23 34 12
2 23 5 25 6 1 0 2 -15 2 -34z m80 0 c0 -31 -3 -35 -25 -35 -22 0 -25 4 -25 35
0 31 3 35 25 35 22 0 25 -4 25 -35z m90 0 c0 -32 -2 -35 -30 -35 -28 0 -30 3
-30 35 0 32 2 35 30 35 28 0 30 -3 30 -35z m88 -2 c3 -32 2 -33 -32 -33 -33 0
-36 3 -36 28 0 36 8 44 40 40 20 -2 26 -9 28 -35z m82 2 c0 -32 -2 -35 -30
-35 -28 0 -30 3 -30 35 0 32 2 35 30 35 28 0 30 -3 30 -35z m88 -2 c3 -32 2
-33 -32 -33 -33 0 -36 3 -36 28 0 36 8 44 40 40 20 -2 26 -9 28 -35z m299
-100 c-2 -27 -3 -5 -3 47 0 52 1 74 3 48 2 -27 2 -69 0 -95z m65 102 c-3 -26
-9 -35 -23 -35 -15 0 -19 7 -19 35 0 30 3 35 23 35 20 0 23 -4 19 -35z m146 3
c-3 -29 -7 -33 -35 -36 -32 -3 -33 -2 -33 32 0 35 1 36 36 36 34 0 35 -1 32
-32z m82 -3 c0 -32 -2 -35 -30 -35 -28 0 -30 3 -30 35 0 32 2 35 30 35 28 0
30 -3 30 -35z m80 0 c0 -32 -2 -35 -30 -35 -28 0 -30 3 -30 35 0 32 2 35 30
35 28 0 30 -3 30 -35z m90 0 c0 -33 -2 -35 -35 -35 -33 0 -35 2 -35 35 0 33 2
35 35 35 33 0 35 -2 35 -35z m90 0 c0 -33 -2 -35 -35 -35 -33 0 -35 2 -35 35
0 33 2 35 35 35 33 0 35 -2 35 -35z m6820 -41 c0 -35 -1 -35 -37 -32 -35 3
-38 6 -41 36 -3 31 -2 32 37 32 40 0 41 -1 41 -36z m98 4 c-3 -29 -7 -33 -35
-36 -32 -3 -33 -2 -33 32 0 35 1 36 36 36 34 0 35 -1 32 -32z m92 -4 c0 -34
-1 -35 -32 -32 -29 3 -33 7 -36 36 -3 31 -2 32 32 32 35 0 36 -1 36 -36z m150
6 c0 -27 -3 -30 -30 -30 -27 0 -30 3 -30 30 0 27 3 30 30 30 27 0 30 -3 30
-30z m90 0 c0 -27 -3 -30 -30 -30 -27 0 -30 3 -30 30 0 27 3 30 30 30 27 0 30
-3 30 -30z m100 0 c0 -28 -3 -30 -35 -30 -32 0 -35 2 -35 30 0 28 3 30 35 30
32 0 35 -2 35 -30z m-8070 -141 c0 -126 -2 -149 -15 -149 -13 0 -15 23 -15
148 0 82 3 152 6 155 19 18 24 -18 24 -154z m39 -21 c1 -80 -3 -128 -9 -128
-6 0 -10 58 -9 158 1 94 4 145 9 127 4 -16 8 -87 9 -157z m51 28 c0 -153 -11
-210 -24 -119 -3 25 -6 97 -6 159 0 95 3 114 15 114 13 0 15 -24 15 -154z m40
-6 c0 -82 -4 -150 -8 -150 -9 0 -14 215 -6 268 10 64 14 29 14 -118z m6740
110 c0 -27 -3 -30 -30 -30 -27 0 -30 3 -30 30 0 27 3 30 30 30 27 0 30 -3 30
-30z m75 0 c0 -20 -6 -26 -28 -28 -24 -3 -27 0 -27 28 0 28 3 31 28 28 21 -2
27 -8 27 -28z m83 -2 c3 -25 0 -28 -27 -28 -28 0 -31 3 -31 31 0 27 3 30 28
27 21 -2 28 -9 30 -30z m77 2 c0 -20 -6 -26 -28 -28 -24 -3 -27 0 -27 28 0 28
3 31 28 28 21 -2 27 -8 27 -28z m85 0 c0 -27 -3 -30 -30 -30 -27 0 -30 3 -30
30 0 27 3 30 30 30 27 0 30 -3 30 -30z m90 0 c0 -28 -3 -30 -35 -30 -32 0 -35
2 -35 30 0 28 3 30 35 30 32 0 35 -2 35 -30z m-7052 -32 c-2 -30 -8 -43 -18
-43 -10 0 -16 13 -18 43 -3 37 -1 42 18 42 19 0 21 -5 18 -42z m-861 -170 c-1
-40 -3 -10 -3 67 0 77 1 110 3 73 2 -37 2 -100 0 -140z m73 167 c0 -31 -3 -35
-25 -35 -22 0 -25 4 -25 35 0 31 3 35 25 35 22 0 25 -4 25 -35z m80 0 c0 -31
-3 -35 -25 -35 -22 0 -25 4 -25 35 0 31 3 35 25 35 22 0 25 -4 25 -35z m90 0
c0 -32 -2 -35 -30 -35 -28 0 -30 3 -30 35 0 32 2 35 30 35 28 0 30 -3 30 -35z
m90 -1 c0 -34 -1 -35 -32 -32 -29 3 -33 7 -36 36 -3 31 -2 32 32 32 35 0 36
-1 36 -36z m80 1 c0 -32 -2 -35 -30 -35 -28 0 -30 3 -30 35 0 32 2 35 30 35
28 0 30 -3 30 -35z m88 3 c-3 -29 -6 -33 -33 -33 -27 0 -30 4 -33 33 -3 31 -2
32 33 32 35 0 36 -1 33 -32z m502 -3 c0 -31 -3 -35 -25 -35 -22 0 -25 4 -25
35 0 31 3 35 25 35 22 0 25 -4 25 -35z m88 3 c-2 -28 -8 -34 -30 -36 -26 -3
-28 -1 -28 32 0 33 2 36 31 36 28 0 30 -2 27 -32z m80 0 c-2 -28 -8 -34 -30
-36 -26 -3 -28 -1 -28 32 0 33 2 36 31 36 28 0 30 -2 27 -32z m92 2 c0 -28 -3
-30 -35 -30 -32 0 -35 2 -35 30 0 28 3 30 35 30 32 0 35 -2 35 -30z m90 0 c0
-28 -3 -30 -35 -30 -32 0 -35 2 -35 30 0 28 3 30 35 30 32 0 35 -2 35 -30z
m6820 -35 c0 -34 -1 -35 -40 -35 -37 0 -40 2 -40 28 0 37 6 42 47 42 31 0 33
-2 33 -35z m100 0 c0 -33 -2 -35 -35 -35 -33 0 -35 2 -35 35 0 33 2 35 35 35
33 0 35 -2 35 -35z m90 0 c0 -33 -2 -35 -35 -35 -33 0 -35 2 -35 35 0 33 2 35
35 35 33 0 35 -2 35 -35z m150 -1 c0 -33 -2 -35 -27 -32 -23 2 -29 8 -31 36
-3 30 -1 32 27 32 29 0 31 -3 31 -36z m90 7 c0 -23 -5 -30 -25 -33 -30 -6 -35
-2 -35 34 0 24 4 28 30 28 26 0 30 -3 30 -29z m100 -1 c0 -28 -3 -30 -35 -30
-32 0 -35 2 -35 30 0 28 3 30 35 30 32 0 35 -2 35 -30z m-1202 -21 c2 -20 -2
-28 -19 -32 -31 -8 -39 -1 -39 34 0 27 3 30 28 27 21 -2 28 -9 30 -29z m80 0
c2 -20 -2 -28 -19 -32 -31 -8 -39 -1 -39 34 0 27 3 30 28 27 21 -2 28 -9 30
-29z m80 -1 c3 -25 0 -28 -27 -28 -28 0 -31 3 -31 31 0 27 3 30 28 27 21 -2
28 -9 30 -30z m77 2 c0 -20 -6 -26 -27 -28 -24 -3 -28 0 -28 21 0 30 9 39 35
35 14 -2 20 -10 20 -28z m85 0 c0 -27 -3 -30 -30 -30 -25 0 -30 4 -30 23 0 30
7 37 37 37 19 0 23 -5 23 -30z m88 -2 c3 -26 1 -28 -32 -28 -31 0 -36 3 -36
23 0 31 9 39 40 35 19 -2 26 -10 28 -30z m-7836 -43 c4 -33 2 -35 -24 -35 -25
0 -28 3 -28 35 0 30 3 35 24 35 20 0 25 -6 28 -35z m78 5 c0 -16 0 -33 0 -37
0 -5 -11 -9 -25 -11 -23 -3 -25 0 -25 37 0 37 2 41 25 41 21 0 25 -5 25 -30z
m88 -7 c-3 -33 -6 -38 -28 -38 -22 0 -25 5 -28 38 -3 35 -2 37 28 37 30 0 31
-2 28 -37z m90 0 c-3 -35 -6 -38 -33 -38 -24 0 -31 5 -33 23 -6 38 5 52 38 52
30 0 31 -2 28 -37z m82 -4 c0 -38 -1 -40 -27 -37 -24 3 -28 8 -31 41 -3 35 -2
37 27 37 30 0 31 -2 31 -41z m88 4 c-3 -35 -6 -38 -33 -38 -24 0 -31 5 -33 23
-6 38 5 52 38 52 30 0 31 -2 28 -37z m299 -96 c-2 -23 -3 -1 -3 48 0 50 1 68
3 42 2 -26 2 -67 0 -90z m61 45 c3 -77 2 -82 -18 -82 -18 0 -20 6 -20 78 0 43
3 82 7 86 19 18 28 -7 31 -82z m142 48 c0 -36 -2 -40 -25 -40 -22 0 -25 4 -25
40 0 36 3 40 25 40 23 0 25 -4 25 -40z m88 3 c-3 -33 -7 -38 -30 -41 -27 -3
-28 -1 -28 37 0 39 1 41 31 41 29 0 30 -2 27 -37z m82 -3 c0 -38 -2 -40 -30
-40 -28 0 -30 2 -30 40 0 38 2 40 30 40 28 0 30 -2 30 -40z m90 -1 c0 -39 -1
-40 -32 -37 -30 3 -33 6 -36 41 -3 36 -3 37 32 37 35 0 36 -1 36 -41z m90 1
c0 -39 -1 -40 -35 -40 -34 0 -35 1 -35 40 0 39 1 40 35 40 34 0 35 -1 35 -40z
m6994 4 c10 -4 16 -18 16 -36 0 -27 -2 -29 -32 -26 -22 2 -34 9 -36 21 -8 40
13 56 52 41z m171 -29 c0 -27 -3 -30 -30 -30 -21 0 -31 5 -33 18 -6 33 6 49
35 45 24 -3 28 -8 28 -33z m85 0 c0 -32 -2 -35 -30 -35 -28 0 -30 3 -30 35 0
32 2 35 30 35 28 0 30 -3 30 -35z m100 -1 c0 -34 -1 -35 -32 -32 -29 3 -33 7
-36 36 -3 31 -2 32 32 32 35 0 36 -1 36 -36z m-6108 3 c-25 -27 -28 -59 -7
-77 21 -17 38 -4 25 21 -9 15 -7 19 5 19 8 0 15 -4 15 -10 0 -16 30 -12 37 5
3 9 -3 25 -12 35 -19 21 -7 28 13 8 15 -15 16 -84 2 -93 -5 -3 -10 1 -10 9 0
9 -7 16 -15 16 -8 0 -15 -7 -15 -15 0 -22 -43 -19 -64 4 -11 12 -16 31 -14 52
3 32 9 37 57 48 3 1 -5 -9 -17 -22z m199 -12 c-12 -27 -22 -34 -43 -35 -16 0
-28 1 -28 3 0 1 -4 17 -9 35 l-10 32 53 0 53 0 -16 -35z m91 28 c-12 -2 -30
-15 -38 -29 -15 -22 -15 -26 0 -49 9 -14 18 -25 20 -25 14 0 36 14 36 22 0 5
-4 6 -10 3 -6 -3 -10 4 -9 17 0 13 3 17 6 11 2 -7 13 -13 24 -13 23 0 24 -13
3 -34 -22 -23 -71 -20 -84 3 -24 46 3 102 48 100 24 -2 24 -2 4 -6z m149 -25
c-5 -26 -12 -34 -34 -36 -19 -2 -29 2 -33 15 -3 10 -10 26 -15 36 -8 15 -4 17
40 17 l48 0 -6 -32z m74 8 c-27 -22 -28 -26 -17 -50 10 -23 18 -27 45 -24 36
3 40 20 5 28 -16 4 -19 8 -10 14 17 10 52 -2 52 -19 0 -33 -56 -58 -86 -37
-46 30 -32 112 20 112 19 0 18 -2 -9 -24z m145 14 c0 -15 -23 -60 -31 -60 -4
0 -10 11 -13 25 -4 14 -11 25 -16 25 -6 0 -10 5 -10 10 0 6 16 10 35 10 19 0
35 -4 35 -10z m2441 -16 c-31 -39 -28 -89 8 -125 l29 -29 -76 0 -77 1 27 20
c35 26 45 77 25 118 -8 16 -12 32 -9 35 3 3 25 6 49 6 l44 0 -20 -26z m227 -9
c-24 -42 -19 -87 14 -122 l21 -23 -73 0 c-69 0 -73 1 -53 15 32 22 48 79 33
116 -7 16 -20 34 -29 39 -11 7 2 9 46 10 l62 0 -21 -35z m192 23 c0 -7 -5 -20
-11 -28 -8 -11 -12 -12 -16 -2 -2 7 -11 19 -20 27 -13 13 -11 15 16 15 18 0
31 -5 31 -12z m2060 -19 c0 -29 -2 -30 -37 -27 -33 3 -38 7 -41 31 -3 26 -1
27 37 27 39 0 41 -1 41 -31z m100 1 c0 -28 -3 -30 -35 -30 -32 0 -35 2 -35 30
0 28 3 30 35 30 32 0 35 -2 35 -30z m-2860 -3 c0 -23 56 -110 85 -131 11 -8
-277 -11 -1182 -13 -1021 -2 -1192 0 -1159 12 46 16 89 55 123 113 l25 42
1054 0 1054 0 0 -23z m100 3 c-11 -11 -20 -30 -20 -42 l-1 -23 -19 24 c-11 13
-20 32 -20 42 0 15 7 19 40 19 l40 0 -20 -20z m1988 -7 c-2 -22 -9 -29 -30
-31 -25 -3 -28 0 -28 27 0 28 3 31 31 31 27 0 30 -3 27 -27z m72 -3 c0 -25 -4
-30 -25 -30 -21 0 -25 5 -25 30 0 25 4 30 25 30 21 0 25 -5 25 -30z m88 3 c-2
-22 -9 -29 -30 -31 -25 -3 -28 0 -28 27 0 28 3 31 31 31 27 0 30 -3 27 -27z
m80 0 c-2 -22 -8 -28 -28 -28 -20 0 -26 6 -28 28 -3 24 0 27 28 27 28 0 31 -3
28 -27z m80 0 c-2 -22 -8 -28 -28 -28 -20 0 -26 6 -28 28 -3 24 0 27 28 27 28
0 31 -3 28 -27z m90 0 c-3 -24 -8 -28 -33 -28 -25 0 -30 4 -33 28 -3 25 -1 27
33 27 34 0 36 -2 33 -27z m-4988 -3 c0 -5 -2 -10 -4 -10 -3 0 -8 5 -11 10 -3
6 -1 10 4 10 6 0 11 -4 11 -10z m2888 -2 c24 -24 9 -88 -21 -88 -5 0 -4 7 3
14 14 18 10 58 -7 64 -7 2 -14 -5 -14 -15 -1 -17 -2 -17 -6 0 -6 22 -27 17
-31 -7 -5 -26 16 -45 28 -26 8 12 10 10 10 -7 0 -13 -4 -23 -10 -23 -12 0 -50
37 -50 48 0 17 26 41 50 45 14 2 27 5 31 6 3 0 10 -4 17 -11z m220 -4 c12 -8
22 -23 22 -33 0 -19 -18 -41 -34 -41 -6 0 -5 5 2 12 16 16 15 43 0 56 -21 16
-58 -4 -58 -31 0 -15 9 -28 23 -35 16 -8 18 -11 5 -11 -22 -1 -48 26 -48 49 0
19 35 50 55 50 6 0 21 -7 33 -16z m-444 -10 c20 -7 21 -34 3 -59 -10 -13 -21
-16 -40 -11 -25 6 -39 36 -17 36 6 0 10 -4 10 -10 0 -17 27 -11 34 7 8 19 -10
34 -31 26 -7 -3 -13 0 -13 6 0 12 29 15 54 5z m-5515 -26 c12 -32 3 -48 -25
-48 -21 0 -24 5 -24 35 0 29 4 35 20 35 12 0 24 -9 29 -22z m87 -12 c-3 -11
-6 -24 -6 -28 0 -5 -11 -8 -25 -8 -21 0 -25 5 -25 29 0 20 6 31 18 33 29 7 44
-3 38 -26z m5844 19 c0 -8 -4 -15 -10 -15 -5 0 -10 7 -10 15 0 8 5 15 10 15 6
0 10 -7 10 -15z m-5760 -25 c0 -27 -3 -30 -30 -30 -27 0 -30 3 -30 30 0 27 3
30 30 30 27 0 30 -3 30 -30z m90 0 c0 -28 -3 -30 -35 -30 -32 0 -35 2 -35 30
0 28 3 30 35 30 32 0 35 -2 35 -30z m80 0 c0 -27 -3 -30 -30 -30 -27 0 -30 3
-30 30 0 27 3 30 30 30 27 0 30 -3 30 -30z m90 -1 c0 -28 -2 -30 -32 -27 -28
2 -34 8 -36 31 -3 25 -1 27 32 27 33 0 36 -2 36 -31z m500 1 c0 -25 -4 -30
-25 -30 -21 0 -25 5 -25 30 0 25 4 30 25 30 21 0 25 -5 25 -30z m90 0 c0 -27
-3 -30 -30 -30 -27 0 -30 3 -30 30 0 27 3 30 30 30 27 0 30 -3 30 -30z m80 0
c0 -27 -3 -30 -30 -30 -27 0 -30 3 -30 30 0 27 3 30 30 30 27 0 30 -3 30 -30z
m90 0 c0 -28 -3 -30 -35 -30 -32 0 -35 2 -35 30 0 28 3 30 35 30 32 0 35 -2
35 -30z m90 0 c0 -28 -3 -30 -35 -30 -32 0 -35 2 -35 30 0 28 3 30 35 30 32 0
35 -2 35 -30z m6918 -18 c3 -32 2 -33 -30 -30 -22 2 -34 9 -36 21 -6 33 6 49
35 45 24 -2 29 -8 31 -36z m90 0 c3 -32 2 -33 -30 -30 -53 5 -54 64 -2 63 25
0 29 -4 32 -33z m160 0 c3 -32 2 -33 -30 -30 -22 2 -34 9 -36 21 -6 33 6 49
35 45 24 -2 29 -8 31 -36z m82 3 c0 -32 -2 -35 -30 -35 -26 0 -30 4 -30 28 0
35 6 42 37 42 20 0 23 -5 23 -35z m100 0 c0 -33 -2 -35 -35 -35 -32 0 -35 3
-35 28 0 36 6 42 42 42 25 0 28 -3 28 -35z m-1205 -5 c0 -20 -6 -26 -27 -28
-25 -3 -28 0 -28 28 0 28 3 31 28 28 21 -2 27 -8 27 -28z m75 0 c0 -25 -4 -30
-25 -30 -21 0 -25 5 -25 30 0 25 4 30 25 30 21 0 25 -5 25 -30z m90 0 c0 -27
-3 -30 -30 -30 -27 0 -30 3 -30 30 0 27 3 30 30 30 27 0 30 -3 30 -30z m78 3
c-2 -22 -8 -28 -28 -28 -20 0 -26 6 -28 28 -3 24 0 27 28 27 28 0 31 -3 28
-27z m82 3 c0 -16 -7 -27 -20 -31 -27 -9 -40 1 -40 31 0 20 5 24 30 24 25 0
30 -4 30 -24z m88 -3 c-2 -22 -9 -29 -30 -31 -16 -2 -29 0 -29 5 -8 50 -7 53
28 53 32 0 34 -2 31 -27z m262 -4 c0 -29 -2 -30 -37 -27 -33 3 -38 7 -41 31
-3 26 -1 27 37 27 39 0 41 -1 41 -31z m227 -1 c-3 -7 -5 -2 -5 12 0 14 2 19 5
13 2 -7 2 -19 0 -25z m-990 -10 c-3 -8 -6 -5 -6 6 -1 11 2 17 5 13 3 -3 4 -12
1 -19z m121 -45 c-21 -2 -55 -2 -75 0 -21 2 -4 4 37 4 41 0 58 -2 38 -4z m360
0 c-10 -2 -26 -2 -35 0 -10 3 -2 5 17 5 19 0 27 -2 18 -5z m-143 -53 c0 -9 11
-16 28 -18 22 -3 30 1 34 17 5 21 10 21 299 21 229 0 294 -3 294 -12 0 -31
-95 -378 -141 -513 -116 -345 -276 -673 -475 -975 -45 -69 -102 -147 -126
-174 l-44 -49 -34 18 c-68 35 -153 98 -241 179 -135 124 -235 178 -396 213
-65 15 -129 18 -378 18 -340 0 -405 -8 -442 -53 -34 -41 -139 -256 -169 -347
-21 -64 -27 -105 -31 -205 -5 -158 -7 -166 -38 -174 -22 -6 -25 -11 -25 -54 0
-26 5 -53 12 -60 7 -7 39 -12 75 -12 62 0 63 0 63 -27 0 -62 71 -133 151 -153
82 -21 164 15 224 98 28 40 42 51 72 56 21 3 191 6 378 5 l340 0 -85 -80
c-161 -151 -464 -373 -694 -508 -424 -249 -951 -435 -1436 -505 -127 -18 -452
-48 -458 -41 -6 5 119 225 194 341 102 158 134 246 134 364 -1 265 -198 461
-465 460 -131 -1 -231 -40 -325 -127 -84 -78 -150 -218 -150 -320 0 -26 -4
-33 -19 -33 -11 0 -27 -3 -37 -7 -14 -5 -11 -9 15 -18 31 -10 35 -17 52 -82
21 -83 40 -123 124 -258 101 -161 195 -317 195 -322 0 -4 -28 -2 -255 18 -218
19 -555 83 -783 150 -125 36 -346 118 -496 183 -237 103 -572 308 -776 475
-110 89 -380 353 -380 371 0 6 89 10 258 10 573 0 1938 21 1963 31 15 6 40 24
55 40 l29 30 -1 182 c0 153 -30 614 -50 764 -6 51 -41 96 -94 123 -36 18 -84
19 -1511 21 -811 2 -1485 -1 -1499 -5 -14 -5 -40 -19 -57 -32 l-32 -25 -17 38
c-109 258 -185 491 -250 767 -24 103 -44 194 -44 202 0 12 547 14 3733 12
3309 -3 3732 -5 3732 -18z m-4088 -985 c40 -17 73 -43 73 -57 0 -4 -700 -8
-1555 -8 -855 0 -1555 4 -1555 8 0 10 38 45 65 60 14 8 432 11 1478 12 1290 0
1462 -2 1494 -15z m-626 -217 c1 -68 1 -279 -1 -469 -1 -190 1 -356 5 -368 6
-21 10 -21 229 -21 159 0 225 3 234 12 8 8 12 46 12 105 l0 93 151 0 152 0 -5
-81 c-4 -74 -7 -83 -37 -112 l-31 -32 -370 -3 -370 -3 0 501 c0 438 2 500 15
500 12 0 15 -21 16 -122z m509 -92 c0 -182 2 -217 16 -230 12 -13 39 -16 124
-16 l108 0 6 -87 c4 -49 9 -109 12 -135 l6 -48 -151 0 -151 0 0 339 0 339 -27
17 c-23 15 -53 18 -198 19 -132 1 -176 -2 -188 -13 -15 -12 -17 -44 -17 -288
l0 -274 25 -24 c19 -20 34 -25 77 -25 29 0 59 4 66 8 9 7 12 71 10 288 l-3
279 -62 3 c-58 3 -63 1 -68 -20 -3 -13 -5 -134 -3 -270 2 -135 0 -244 -4 -241
-5 2 -8 123 -8 268 0 251 1 265 19 275 21 11 278 14 305 4 14 -5 16 -39 16
-274 0 -169 -4 -271 -10 -275 -7 -4 -10 85 -10 259 0 252 -1 266 -19 276 -25
13 -72 13 -105 0 l-26 -10 0 -270 0 -270 23 -15 c29 -18 134 -11 157 11 13 13
14 55 11 284 -2 192 0 270 8 270 12 0 16 -460 5 -544 l-7 -46 -208 0 -209 0 0
318 c0 175 3 322 7 325 3 4 111 7 240 7 l233 0 0 -214z m205 202 c7 -20 35
-315 35 -369 l0 -49 -89 0 c-49 0 -96 3 -105 6 -24 9 -24 385 0 408 20 20 152
23 159 4z m-769 -35 c-2 -21 -4 -222 -5 -448 -1 -225 -4 -405 -6 -400 -2 6 -6
27 -10 49 -3 21 -17 49 -30 62 l-24 24 -618 0 -618 0 -28 35 c-37 47 -81 68
-142 68 -62 1 -110 -23 -137 -69 -17 -29 -25 -34 -59 -34 -30 0 -39 -4 -39
-17 0 -10 -11 2 -24 27 -31 63 -75 90 -143 90 -62 0 -100 -17 -136 -60 l-26
-30 -165 0 -166 0 0 135 0 135 1154 0 c1121 0 1154 1 1177 19 23 18 24 25 27
170 3 150 3 151 -22 176 l-25 25 -1156 0 -1155 0 0 40 0 40 1189 0 1189 0 -2
-37z m248 -39 c14 -5 16 -37 16 -255 0 -235 -1 -249 -19 -259 -11 -5 -31 -10
-45 -10 l-26 0 0 259 c0 198 3 261 13 264 18 8 43 8 61 1z m170 -2 c10 -16 9
-503 -1 -513 -6 -6 -26 -9 -44 -7 l-34 3 -6 115 c-11 209 -10 385 3 398 13 13
74 16 82 4z m-2524 -197 l0 -155 -134 0 c-113 0 -135 2 -140 16 -8 20 -8 242
0 272 6 21 10 22 140 22 l134 0 0 -155z m350 0 l0 -155 -155 0 -155 0 0 155 0
155 155 0 155 0 0 -155z m350 0 l0 -155 -155 0 -155 0 0 155 0 155 155 0 155
0 0 -155z m360 0 l0 -155 -160 0 -160 0 0 155 0 155 160 0 160 0 0 -155z m370
0 l0 -155 -165 0 -165 0 0 155 0 155 165 0 165 0 0 -155z m350 0 l0 -155 -161
0 -160 0 2 143 c1 78 4 148 7 155 3 9 44 12 158 12 l154 0 0 -155z m270 136
c5 -11 10 -72 10 -136 0 -64 -5 -125 -10 -136 -10 -17 -22 -19 -120 -19 l-110
0 0 155 0 155 110 0 c98 0 110 -2 120 -19z m3865 -90 c253 -17 345 -55 530
-221 119 -107 213 -166 314 -196 212 -64 213 -64 206 -88 -23 -79 -9 -155 35
-187 17 -13 46 -19 92 -21 46 -2 68 -7 68 -15 0 -10 -24 -13 -87 -12 l-88 0
-30 42 c-17 23 -51 53 -75 67 -42 23 -54 25 -163 23 -91 -2 -125 -6 -144 -18
l-25 -17 7 135 7 135 -48 53 c-66 70 -193 172 -268 214 -71 39 -160 65 -227
65 -76 0 -79 -6 -79 -189 0 -109 4 -161 12 -169 9 -9 88 -12 295 -12 156 0
283 -3 283 -7 0 -36 -34 -313 -41 -330 l-9 -23 -280 0 -280 0 0 360 c0 305 -2
360 -14 360 -12 0 -14 -53 -9 -360 l6 -360 -165 0 -166 0 -17 28 c-46 73 -109
116 -184 128 l-42 7 7 286 c5 223 9 289 20 301 23 24 326 36 559 21z m-605
-148 c0 -71 -3 -205 -7 -299 l-6 -170 -49 -18 c-66 -23 -111 -71 -130 -137
-11 -42 -20 -56 -41 -63 -32 -12 -57 6 -57 41 0 18 8 27 30 34 27 10 30 15 30
55 0 43 0 44 34 44 29 0 42 9 85 56 29 31 61 74 71 95 21 39 28 133 11 143 -5
3 -5 25 0 48 4 24 8 100 9 171 0 78 4 127 10 127 6 0 10 -49 10 -127z m837 46
c34 -11 92 -42 130 -68 86 -61 223 -179 223 -191 0 -6 -100 -10 -265 -10
l-265 0 0 138 c0 96 4 142 12 150 16 16 80 8 165 -19z m-890 -96 c-10 -166 -7
-161 -78 -165 -42 -2 -59 1 -59 9 0 37 119 273 137 273 3 0 3 -53 0 -117z m1
-220 c2 -12 -5 -39 -15 -60 -23 -49 -114 -143 -137 -143 -17 0 -18 7 -11 92 4
51 11 100 16 110 9 17 48 26 109 24 28 -1 36 -5 38 -23z m-2648 -38 c0 -13
-30 -15 -210 -15 -180 0 -210 2 -210 15 0 13 30 15 210 15 180 0 210 -2 210
-15z m-2337 -9 c43 -19 74 -43 65 -52 -4 -4 -16 3 -26 16 -10 12 -40 28 -67
35 -28 8 -40 14 -27 14 12 1 37 -5 55 -13z m439 -17 c20 -13 43 -34 50 -47
l15 -24 614 2 c488 1 617 -2 630 -12 14 -11 69 -168 69 -197 0 -8 -202 -11
-722 -10 -427 0 -711 4 -694 9 40 12 94 67 105 107 18 64 -23 139 -97 174 -42
21 -76 22 -139 4 -10 -3 -4 2 12 10 41 21 112 14 157 -16z m-542 10 c-13 -6
-40 -22 -60 -37 -21 -16 -29 -19 -20 -7 19 24 71 55 90 54 8 0 4 -5 -10 -10z
m114 -34 c85 -36 86 -165 2 -216 -40 -24 -79 -24 -131 1 -161 78 -38 284 129
215z m404 -5 c72 -44 80 -133 16 -189 -71 -63 -188 -31 -215 58 -10 34 -9 45
10 84 12 24 31 49 44 55 37 18 109 14 145 -8z m1920 -2 c-4 -10 -57 -14 -211
-16 -180 -2 -207 0 -207 13 0 13 29 15 211 15 164 0 210 -3 207 -12z m4473
-16 c38 -34 32 -52 -17 -52 -55 0 -39 -19 18 -22 47 -3 54 -6 62 -31 8 -22 7
-30 -4 -37 -25 -16 -96 -11 -120 8 -43 35 -36 162 10 162 11 0 34 -13 51 -28z
m-6626 -75 c0 -89 38 -135 134 -163 l46 -14 -49 5 c-27 3 -112 5 -190 5 l-141
0 41 19 c49 22 85 75 92 137 4 36 9 45 28 50 13 3 24 10 24 15 0 5 3 9 8 9 4
0 7 -28 7 -63z m-409 6 c-1 -69 20 -111 73 -144 l45 -29 -98 0 c-88 0 -103 3
-159 31 -34 16 -80 45 -103 64 -38 31 -74 87 -74 114 0 8 50 11 158 11 l158 0
0 -47z m2564 27 c0 -19 -7 -20 -210 -20 -203 0 -210 1 -210 20 0 19 7 20 210
20 203 0 210 -1 210 -20z m-2 -67 c-3 -16 -22 -18 -211 -21 -202 -2 -207 -2
-207 18 0 19 6 20 211 20 195 0 210 -1 207 -17z m4067 -13 c-3 -5 -13 -10 -22
-10 -25 0 -79 -46 -93 -79 -15 -38 -30 -40 -30 -5 0 36 16 62 53 84 33 21 103
28 92 10z m-1233 -27 c50 -29 90 -93 96 -152 6 -64 -13 -69 -22 -7 -9 55 -53
117 -99 139 -45 22 -129 22 -174 1 -22 -11 -44 -34 -63 -68 -44 -78 -51 -86
-43 -51 15 76 58 127 128 153 42 16 138 8 177 -15z m-2842 -28 c0 -13 -27 -15
-202 -13 -150 2 -202 6 -206 16 -3 9 42 12 202 12 178 0 206 -2 206 -15z
m4522 -65 c48 0 49 -1 46 -27 -3 -25 -8 -29 -55 -37 -68 -11 -99 -3 -107 29
-9 36 1 48 36 41 17 -3 53 -6 80 -6z m-1721 -26 c28 -25 26 -97 -3 -124 -32
-29 -92 -27 -123 5 -38 38 -28 110 19 134 28 14 84 6 107 -15z m1413 15 c57
-27 55 -114 -5 -144 -38 -20 -62 -19 -93 6 -43 34 -33 119 17 139 31 12 52 12
81 -1z m-324 -39 c0 -20 -7 -20 -455 -20 -448 0 -455 0 -455 20 0 20 7 20 455
20 448 0 455 0 455 -20z m50 -1 c0 -11 -4 -17 -10 -14 -5 3 -10 13 -10 21 0 8
5 14 10 14 6 0 10 -9 10 -21z m-2925 -74 c164 -43 277 -170 307 -345 23 -131
-8 -238 -120 -412 -33 -51 -79 -127 -102 -168 -59 -103 -176 -293 -197 -319
-18 -22 -18 -21 -85 81 -78 121 -269 431 -309 503 -66 119 -70 292 -9 424 35
75 114 162 180 196 98 52 229 67 335 40z"/>
<path d="M5035 9396 c-44 -19 -102 -88 -115 -137 -28 -105 36 -209 149 -239
125 -33 251 63 251 193 0 83 -38 143 -115 178 -47 22 -127 24 -170 5z m173
-43 c15 -11 38 -35 50 -54 20 -28 23 -44 20 -94 -4 -73 -26 -106 -86 -136
-112 -56 -242 23 -242 146 0 122 162 209 258 138z"/>
<path d="M4746 8787 c-4 -89 -11 -163 -17 -165 -11 -5 -12 -62 0 -62 5 0 11
-39 13 -87 6 -100 40 -193 79 -214 18 -9 96 -12 309 -10 312 3 306 1 331 64 7
18 21 44 31 59 17 25 18 42 12 235 -4 114 -11 216 -16 225 -5 10 -21 21 -35
25 -15 3 -42 15 -61 26 -31 18 -48 19 -260 15 -250 -5 -272 -9 -307 -65 -33
-52 -45 -42 -45 36 0 49 -4 70 -14 74 -10 4 -15 -26 -20 -156z m535 62 c83
-42 124 -128 117 -246 -5 -90 -29 -145 -80 -188 -54 -46 -88 -55 -203 -55
-122 0 -158 13 -218 79 -45 50 -60 104 -55 206 3 68 8 86 32 123 39 57 102 93
180 103 84 10 184 1 227 -22z m92 12 c27 -11 45 -47 30 -62 -5 -5 -25 7 -48
31 -40 41 -34 51 18 31z m-463 -4 c0 -2 -16 -18 -35 -37 -32 -31 -35 -32 -35
-12 0 13 11 27 28 36 26 15 42 19 42 13z m550 -93 c0 -55 -11 -69 -29 -35 -8
14 -7 22 4 31 19 16 19 30 0 30 -8 0 -15 6 -15 13 0 19 10 27 26 20 10 -3 14
-22 14 -59z m-652 -31 c-4 -39 -28 -42 -28 -4 0 21 5 31 16 31 11 0 14 -8 12
-27z m660 -79 c-1 -9 -8 -19 -14 -21 -15 -5 -25 45 -10 50 16 6 28 -8 24 -29z
m-668 -29 c0 -25 -4 -45 -10 -45 -11 0 -14 73 -3 83 11 12 13 8 13 -38z m668
-52 c-2 -26 -8 -38 -18 -38 -14 0 -17 30 -5 63 10 28 26 10 23 -25z m-659 -50
c7 -27 19 -59 28 -73 16 -25 16 -25 -4 -7 -11 9 -27 17 -36 17 -13 0 -15 11
-15 55 1 30 5 55 9 55 3 0 12 -21 18 -47z m645 -9 c26 -10 20 -53 -9 -60 -37
-9 -43 -2 -28 34 14 35 14 35 37 26z m-626 -114 c-5 -23 -35 -24 -43 -1 -3 12
-4 25 0 31 9 14 46 -12 43 -30z m88 -37 c-3 -3 -18 -2 -35 2 -24 5 -31 12 -31
31 l0 25 35 -27 c20 -15 33 -29 31 -31z m488 16 c-3 -5 -26 -9 -52 -9 l-47 0
40 25 c36 22 41 23 52 8 7 -9 10 -20 7 -24z m66 32 c0 -14 -28 -33 -39 -27
-16 10 -1 36 20 36 10 0 19 -4 19 -9z m-487 -83 c9 -5 17 -18 17 -28 0 -18 -7
-20 -69 -20 -85 0 -98 5 -117 41 l-15 30 83 -7 c46 -4 91 -11 101 -16z m457
13 c0 -4 -9 -20 -21 -35 -19 -25 -25 -26 -110 -26 l-89 0 12 25 c13 29 27 33
113 38 33 2 68 4 78 5 9 1 17 -2 17 -7z m-340 -36 c0 -22 -4 -25 -34 -25 -32
0 -46 13 -46 41 0 5 18 9 40 9 36 0 40 -2 40 -25z m100 0 c0 -22 -4 -25 -35
-25 -27 0 -35 4 -35 18 0 25 9 32 42 32 23 0 28 -4 28 -25z"/>
<path d="M5023 8786 c-125 -59 -148 -211 -47 -312 94 -95 240 -73 312 46 50
84 43 161 -21 229 -63 66 -152 80 -244 37z m194 -42 c65 -49 80 -122 42 -201
-50 -103 -174 -125 -258 -45 -144 137 58 366 216 246z"/>
<path d="M4553 8593 c-15 -5 -17 -39 -5 -47 19 -11 67 11 70 32 3 18 -1 22
-25 21 -15 0 -34 -3 -40 -6z"/>
<path d="M5530 8560 c0 -25 4 -30 25 -30 21 0 25 5 25 30 0 25 -4 30 -25 30
-21 0 -25 -5 -25 -30z"/>
<path d="M4383 8563 c-24 -5 -29 -19 -15 -41 6 -8 19 -10 40 -6 25 5 32 12 32
30 0 24 -7 27 -57 17z"/>
<path d="M5702 8543 c2 -24 8 -28 36 -31 31 -3 33 -2 30 25 -2 24 -8 28 -36
31 -31 3 -33 2 -30 -25z"/>
<path d="M5887 8533 c-23 -23 5 -52 50 -53 18 0 27 41 12 51 -17 10 -53 12
-62 2z"/>
<path d="M4208 8523 c-11 -3 -18 -14 -18 -29 0 -26 13 -30 54 -15 18 8 23 15
19 30 -5 20 -19 24 -55 14z"/>
<path d="M6057 8478 c-7 -25 7 -38 41 -38 30 0 41 29 17 46 -28 21 -52 17 -58
-8z"/>
<path d="M4033 8473 c-14 -5 -18 -53 -4 -53 4 0 22 5 40 11 22 8 30 16 27 26
-3 8 -6 17 -6 19 0 5 -42 4 -57 -3z"/>
<path d="M6237 8444 c-15 -15 -6 -42 16 -48 41 -11 48 -7 45 22 -2 20 -9 28
-28 30 -14 2 -29 0 -33 -4z"/>
<path d="M3878 8418 c-30 -11 -33 -19 -18 -48 9 -16 15 -17 41 -8 20 7 28 15
25 25 -3 8 -6 21 -6 29 0 16 -4 16 -42 2z"/>
<path d="M6407 8384 c-17 -17 -5 -43 23 -53 28 -9 32 -8 39 12 5 12 6 25 2 29
-10 11 -56 20 -64 12z"/>
<path d="M3713 8343 c-36 -14 -39 -21 -20 -47 11 -15 17 -16 40 -5 26 12 34
33 19 55 -5 8 -16 7 -39 -3z"/>
<path d="M6570 8295 c0 -22 24 -45 49 -45 20 0 23 41 4 55 -29 23 -53 19 -53
-10z"/>
<path d="M3548 8259 c-21 -12 -23 -42 -5 -57 9 -8 20 -6 39 6 21 14 24 21 17
40 -9 24 -24 27 -51 11z"/>
<path d="M6723 8223 c-7 -18 32 -56 51 -50 19 6 19 40 0 54 -24 18 -43 16 -51
-4z"/>
<path d="M6866 8144 c-7 -18 7 -40 35 -55 14 -7 21 -4 30 13 10 18 8 24 -11
40 -28 22 -46 23 -54 2z"/>
<path d="M7013 8054 c-3 -9 4 -26 18 -40 l24 -25 18 23 c18 22 18 23 -3 40
-27 22 -49 23 -57 2z"/>
<path d="M7159 7964 c-14 -17 -5 -40 24 -58 25 -16 56 16 37 39 -24 29 -47 36
-61 19z"/>
<path d="M3940 7284 c-79 -34 -140 -129 -140 -217 0 -56 31 -129 68 -157 25
-20 24 -20 -611 -20 l-636 0 24 26 c89 96 84 230 -10 313 -79 69 -164 80 -256
34 -126 -65 -167 -230 -83 -340 13 -17 24 -34 24 -37 0 -3 -133 -6 -295 -6
-256 0 -295 -2 -295 -15 0 -13 169 -15 1488 -13 1314 3 1487 5 1487 18 0 13
-39 15 -281 18 l-281 2 33 35 c42 45 68 123 60 178 -4 23 -20 65 -36 93 -50
89 -167 128 -260 88z m161 -123 c24 -24 29 -38 29 -76 0 -40 -5 -52 -31 -76
-42 -39 -104 -40 -147 -4 -38 32 -46 65 -27 112 30 75 122 98 176 44z m-1552
-7 c99 -83 -17 -243 -127 -174 -93 58 -56 200 53 200 32 0 51 -7 74 -26z"/>
<path d="M3998 7126 c-26 -13 -36 -59 -17 -82 19 -23 66 -17 84 10 31 48 -15
98 -67 72z"/>
<path d="M2434 7095 c-15 -23 -15 -27 0 -50 29 -43 96 -21 96 31 0 48 -68 62
-96 19z m56 -15 c0 -5 -5 -10 -11 -10 -5 0 -7 5 -4 10 3 6 8 10 11 10 2 0 4
-4 4 -10z"/>
<path d="M7927 7034 c-11 -11 5 -34 24 -34 22 0 24 11 7 28 -13 13 -22 15 -31
6z"/>
<path d="M8023 6913 c-20 -8 -15 -38 10 -62 22 -20 25 -20 38 -5 11 13 11 20
-1 42 -16 27 -27 33 -47 25z"/>
<path d="M2113 6814 c-8 -20 21 -49 41 -41 9 4 16 18 16 32 0 20 -5 25 -25 25
-14 0 -28 -7 -32 -16z"/>
<path d="M8116 6757 c-19 -14 -19 -15 3 -51 19 -29 26 -34 37 -25 19 16 18 42
-3 68 -16 19 -20 20 -37 8z"/>
<path d="M2042 6648 c-30 -30 1 -74 33 -48 20 16 19 46 -1 54 -20 8 -18 8 -32
-6z"/>
<path d="M8203 6603 c-16 -6 -16 -25 -1 -58 23 -52 60 -18 38 35 -13 31 -15
32 -37 23z"/>
<path d="M1951 6461 c-13 -24 8 -55 31 -46 22 9 31 35 17 51 -16 19 -36 17
-48 -5z"/>
<path d="M8267 6424 c-12 -12 15 -64 33 -64 25 0 32 14 24 45 -4 17 -13 25
-28 25 -13 0 -25 -3 -29 -6z"/>
<path d="M5100 6385 c-104 -29 -187 -103 -236 -210 -68 -148 -31 -265 158
-506 139 -177 156 -195 176 -183 9 6 59 62 110 125 198 244 247 337 240 454
-6 89 -33 151 -98 219 -90 95 -228 134 -350 101z m206 -46 c66 -25 134 -83
172 -148 21 -35 27 -61 30 -127 4 -76 2 -88 -25 -146 -29 -62 -176 -265 -253
-349 l-40 -44 -46 50 c-81 89 -204 258 -241 332 -33 68 -35 77 -31 145 12 178
145 306 320 308 35 0 79 -8 114 -21z"/>
<path d="M5115 6157 c-52 -29 -89 -97 -80 -147 27 -146 210 -187 286 -63 84
136 -65 289 -206 210z m168 -57 c26 -29 29 -38 24 -79 -7 -65 -58 -111 -123
-111 -37 0 -51 5 -74 29 -53 53 -52 131 2 176 28 24 39 27 87 23 46 -4 59 -10
84 -38z"/>
<path d="M3005 6234 c-95 -120 -92 -114 -70 -130 10 -8 22 -14 25 -14 3 0 32
32 64 70 67 80 61 80 133 -12 25 -33 52 -58 62 -58 11 0 42 29 73 68 29 37 60
67 67 67 8 0 37 -29 64 -65 67 -88 79 -88 147 -1 30 39 57 71 60 70 3 0 32
-32 65 -70 60 -70 87 -82 93 -42 4 24 -131 193 -154 193 -10 0 -82 -82 -132
-150 -2 -2 -15 11 -30 30 -47 62 -104 120 -116 120 -7 0 -38 -31 -70 -70 -32
-38 -61 -70 -65 -70 -3 0 -31 31 -61 69 -35 45 -62 70 -75 70 -13 0 -41 -26
-80 -75z"/>
<path d="M1883 6293 c-18 -7 -16 -52 2 -59 19 -8 45 13 45 36 0 14 -23 34 -33
29 -1 0 -8 -3 -14 -6z"/>
<path d="M8348 6252 c-15 -6 -15 -11 -3 -39 15 -34 21 -38 43 -25 9 6 10 16 1
40 -11 34 -14 35 -41 24z"/>
<path d="M1812 6108 c-16 -16 -15 -33 3 -48 20 -17 47 5 43 34 -4 24 -28 32
-46 14z"/>
<path d="M8392 6038 c2 -23 9 -34 22 -36 26 -5 40 12 32 42 -5 19 -13 26 -32
26 -22 0 -25 -4 -22 -32z"/>
<path d="M1757 5924 c-13 -14 -7 -43 12 -53 23 -13 45 8 39 36 -3 18 -38 30
-51 17z"/>
<path d="M1243 5899 c-17 -5 -43 -23 -57 -39 -13 -17 -32 -30 -40 -30 -29 0
-76 -53 -82 -91 -5 -31 -1 -42 24 -70 l30 -34 162 -3 c106 -2 172 1 190 8 59
25 64 98 8 145 -16 14 -35 25 -42 25 -7 0 -22 13 -34 30 -37 50 -103 74 -159
59z m106 -55 c17 -14 31 -32 31 -39 0 -7 14 -18 32 -24 43 -15 68 -39 68 -66
0 -41 -16 -45 -184 -45 -175 0 -196 6 -196 60 0 35 38 71 67 64 15 -4 23 0 28
15 19 60 102 79 154 35z"/>
<path d="M8435 5879 c-12 -19 4 -59 25 -59 25 0 33 15 26 46 -7 25 -39 34 -51
13z"/>
<path d="M1717 5744 c-4 -4 -7 -18 -7 -31 0 -21 4 -24 28 -21 21 2 27 8 27 28
0 18 -6 26 -20 28 -12 2 -24 0 -28 -4z"/>
<path d="M8483 5702 c-18 -3 -23 -10 -23 -33 0 -26 3 -29 30 -29 27 0 30 3 30
29 0 34 -6 39 -37 33z"/>
<path d="M1677 5548 c-6 -18 11 -48 27 -48 20 0 37 25 30 44 -7 19 -50 22 -57
4z"/>
<path d="M8503 5513 c-7 -2 -13 -18 -13 -34 0 -24 4 -29 25 -29 26 0 29 9 19
48 -6 23 -10 24 -31 15z"/>
<path d="M1963 5365 c-19 -19 -41 -35 -48 -35 -7 0 -24 -9 -39 -21 -20 -16
-26 -29 -26 -59 0 -30 6 -43 26 -59 24 -19 40 -21 156 -21 124 0 130 1 153 25
32 31 34 87 5 113 -11 9 -33 29 -48 43 -64 62 -126 67 -179 14z m129 -23 c13
-15 31 -31 40 -35 30 -11 51 -53 38 -76 -10 -20 -20 -21 -141 -21 l-129 0 -12
26 c-11 23 -10 29 10 44 12 10 31 16 42 13 11 -3 20 -1 20 5 0 6 12 24 26 41
34 41 73 42 106 3z"/>
<path d="M8632 7698 c-7 -7 -12 -21 -12 -33 0 -30 19 -45 55 -45 54 0 71 34
35 70 -22 22 -60 26 -78 8z m55 -44 c-9 -9 -28 6 -21 18 4 6 10 6 17 -1 6 -6
8 -13 4 -17z"/>
<path d="M8760 7665 c0 -37 10 -44 30 -20 14 17 4 55 -16 55 -9 0 -14 -11 -14
-35z"/>
<path d="M8214 7636 c-9 -24 0 -58 18 -70 14 -8 22 -6 39 11 21 21 21 23 5 47
-18 28 -53 35 -62 12z"/>
<path d="M8093 7623 c-30 -11 -10 -73 23 -73 20 0 24 5 24 28 0 15 -5 33 -12
40 -13 13 -16 13 -35 5z"/>
<path d="M7964 7596 c-10 -26 5 -66 24 -66 36 0 46 15 31 46 -16 33 -46 43
-55 20z"/>
<path d="M7854 7576 c-11 -29 1 -61 24 -64 28 -4 39 20 24 54 -13 26 -40 32
-48 10z"/>
<path d="M7732 7558 c-28 -28 -7 -80 29 -71 16 5 19 13 17 42 -3 38 -24 51
-46 29z"/>
<path d="M7600 7512 c0 -34 22 -57 46 -48 10 4 14 16 12 38 -2 28 -8 34 -30
36 -25 3 -28 0 -28 -26z"/>
<path d="M7484 7506 c-11 -29 1 -61 24 -64 26 -4 37 17 28 53 -7 28 -43 35
-52 11z"/>
<path d="M7371 7501 c-7 -5 -11 -23 -9 -42 2 -26 8 -35 26 -37 26 -4 37 17 28
52 -7 26 -26 38 -45 27z"/>
<path d="M7241 7477 c-17 -22 -3 -77 21 -77 24 0 34 25 22 58 -11 31 -27 38
-43 19z"/>
<path d="M7104 7445 c-8 -21 11 -65 28 -65 28 0 37 15 30 45 -9 34 -48 47 -58
20z"/>
<path d="M1840 4191 c0 -22 25 -45 40 -36 5 3 10 17 10 31 0 19 -5 24 -25 24
-18 0 -25 -5 -25 -19z"/>
<path d="M8470 4071 c-16 -30 -12 -49 11 -56 38 -12 55 46 19 65 -15 8 -21 6
-30 -9z"/>
<path d="M1892 4028 c-28 -28 3 -83 33 -58 8 7 15 20 15 29 0 17 -18 41 -30
41 -3 0 -11 -5 -18 -12z"/>
<path d="M8400 3900 c-15 -28 -12 -48 9 -59 22 -12 39 3 43 38 4 32 -37 49
-52 21z"/>
<path d="M1961 3850 c-19 -11 -9 -54 13 -58 25 -5 39 12 32 36 -8 24 -28 33
-45 22z"/>
<path d="M8296 3725 c-15 -23 -15 -25 7 -40 21 -15 23 -14 44 12 21 26 22 29
6 41 -25 18 -39 15 -57 -13z"/>
<path d="M2027 3673 c-14 -13 -7 -43 12 -53 26 -13 28 -13 35 6 12 31 -26 69
-47 47z"/>
<path d="M8177 3582 c-27 -28 -27 -29 -7 -47 16 -15 22 -16 35 -5 30 25 36 46
16 64 -16 15 -19 14 -44 -12z"/>
<path d="M2123 3513 c-18 -7 -16 -53 3 -60 8 -3 22 1 30 9 24 24 -1 62 -33 51z"/>
<path d="M8028 3472 c-31 -19 -35 -34 -13 -52 14 -12 27 -8 57 18 13 11 15 19
7 33 -12 23 -16 23 -51 1z"/>
<path d="M7868 3403 c-12 -3 -18 -14 -18 -33 0 -27 1 -28 31 -20 40 12 39 11
32 38 -5 22 -12 24 -45 15z"/>
<path d="M7680 3339 c0 -24 3 -30 16 -25 9 3 21 6 29 6 7 0 15 11 17 25 5 23
2 25 -28 25 -31 0 -34 -2 -34 -31z"/>
<path d="M4890 3330 c0 -27 3 -30 30 -30 27 0 30 3 30 30 0 27 -3 30 -30 30
-27 0 -30 -3 -30 -30z"/>
<path d="M5060 3335 c0 -22 4 -25 35 -25 31 0 35 3 35 25 0 22 -4 25 -35 25
-31 0 -35 -3 -35 -25z"/>
<path d="M5236 3344 c-9 -24 2 -34 40 -34 30 0 34 3 34 25 0 22 -4 25 -34 25
-22 0 -36 -6 -40 -16z"/>
<path d="M5410 3336 c0 -23 4 -26 36 -26 31 0 35 3 32 23 -2 17 -11 23 -35 25
-30 3 -33 1 -33 -22z"/>
<path d="M5580 3335 c0 -22 4 -25 35 -25 31 0 35 3 35 25 0 22 -4 25 -35 25
-31 0 -35 -3 -35 -25z"/>
<path d="M5750 3351 c0 -26 15 -41 40 -41 32 0 43 11 34 34 -7 17 -74 23 -74
7z"/>
<path d="M5930 3335 c0 -22 4 -25 35 -25 31 0 35 3 35 25 0 22 -4 25 -35 25
-31 0 -35 -3 -35 -25z"/>
<path d="M6110 3334 c0 -23 3 -25 33 -22 24 2 33 8 35 26 3 19 -1 22 -32 22
-32 0 -36 -3 -36 -26z"/>
<path d="M6282 3338 c2 -18 11 -24 36 -26 29 -3 32 -1 32 22 0 23 -4 26 -36
26 -31 0 -35 -3 -32 -22z"/>
<path d="M6460 3335 c0 -22 4 -25 35 -25 31 0 35 3 35 25 0 22 -4 25 -35 25
-31 0 -35 -3 -35 -25z"/>
<path d="M6630 3335 c0 -22 4 -25 35 -25 31 0 35 3 35 25 0 22 -4 25 -35 25
-31 0 -35 -3 -35 -25z"/>
<path d="M6800 3335 c0 -22 4 -25 35 -25 31 0 35 3 35 25 0 22 -4 25 -35 25
-31 0 -35 -3 -35 -25z"/>
<path d="M6990 3335 c0 -21 5 -25 30 -25 25 0 30 4 30 25 0 21 -5 25 -30 25
-25 0 -30 -4 -30 -25z"/>
<path d="M7160 3335 c0 -22 4 -25 35 -25 31 0 35 3 35 25 0 22 -4 25 -35 25
-31 0 -35 -3 -35 -25z"/>
<path d="M7330 3335 c0 -22 4 -25 35 -25 31 0 35 3 35 25 0 22 -4 25 -35 25
-31 0 -35 -3 -35 -25z"/>
<path d="M7510 3335 c0 -22 4 -25 35 -25 31 0 35 3 35 25 0 22 -4 25 -35 25
-31 0 -35 -3 -35 -25z"/>
<path d="M3264 2045 c-4 -9 0 -23 9 -32 21 -21 49 -9 45 19 -4 28 -45 38 -54
13z"/>
<path d="M3414 1966 c-3 -8 -4 -23 -2 -33 5 -25 51 -25 56 0 7 36 -42 65 -54
33z"/>
<path d="M3556 1863 c-8 -19 17 -43 45 -43 25 0 34 32 13 47 -25 18 -51 16
-58 -4z"/>
<path d="M6561 1843 c-15 -13 -18 -22 -12 -33 14 -21 65 -1 69 28 4 28 -26 30
-57 5z"/>
<path d="M3720 1776 c0 -19 7 -27 26 -32 14 -4 30 -2 37 5 17 17 -4 45 -37 49
-22 3 -26 0 -26 -22z"/>
<path d="M6388 1769 c-19 -11 -24 -34 -9 -43 17 -11 72 16 69 33 -4 19 -36 25
-60 10z"/>
<path d="M3897 1723 c-16 -15 -6 -43 17 -49 30 -7 46 1 46 26 0 24 -46 41 -63
23z"/>
<path d="M6227 1708 c-21 -7 -27 -16 -25 -31 4 -28 29 -32 57 -10 15 12 20 24
16 36 -8 19 -9 19 -48 5z"/>
<path d="M4060 1647 c0 -18 7 -27 26 -31 15 -4 32 -2 38 4 16 16 -6 44 -38 48
-22 3 -26 -1 -26 -21z"/>
<path d="M6020 1615 c0 -18 5 -25 19 -25 33 0 51 11 51 31 0 15 -7 19 -35 19
-31 0 -35 -3 -35 -25z"/>
<path d="M4234 1605 c-8 -21 14 -45 41 -45 30 0 42 30 19 47 -24 17 -53 16
-60 -2z"/>
<path d="M5853 1583 c-21 -8 -16 -43 6 -43 33 0 51 11 51 31 0 19 -27 25 -57
12z"/>
<path d="M4412 1558 c2 -18 11 -24 36 -26 26 -3 32 0 32 16 0 21 -18 32 -52
32 -14 0 -19 -6 -16 -22z"/>
<path d="M5667 1533 c-16 -15 -6 -43 14 -43 29 0 59 18 59 35 0 15 -60 22 -73
8z"/>
<path d="M7011 2826 c-8 -9 -11 -66 -9 -182 l3 -169 225 -3 c124 -1 235 0 248
3 22 5 22 7 22 173 0 117 -4 172 -12 180 -19 19 -461 17 -477 -2z m459 -171
l0 -155 -217 2 -218 3 -3 153 -3 152 221 0 220 0 0 -155z"/>
<path d="M1795 2371 c-41 -18 -60 -51 -60 -103 0 -43 4 -53 33 -79 46 -41 111
-41 152 0 73 73 37 176 -66 187 -21 2 -48 0 -59 -5z m105 -51 c47 -47 11 -120
-59 -120 -45 0 -71 26 -71 69 0 61 86 95 130 51z"/>
<path d="M2168 2351 c-29 -26 -33 -35 -33 -81 0 -46 4 -55 33 -81 54 -48 153
-35 180 26 23 49 15 94 -22 131 -29 29 -41 34 -80 34 -36 0 -52 -6 -78 -29z
m132 -21 c40 -40 15 -128 -37 -131 -64 -4 -93 18 -93 72 0 29 6 42 26 58 34
27 78 27 104 1z"/>
<path d="M4944 1666 c-3 -7 -4 -93 -2 -191 4 -225 -5 -215 180 -215 124 0 130
1 154 25 l24 25 -2 182 -3 183 -173 3 c-141 2 -173 0 -178 -12z m324 -163 c2
-114 -1 -149 -13 -173 l-16 -30 -117 0 -118 0 -17 35 c-22 45 -25 300 -4 308
6 3 73 4 147 3 l135 -1 3 -142z"/>
<path d="M5083 1592 c-41 -3 -43 -5 -54 -45 -21 -75 -36 -156 -31 -162 8 -8
240 -6 245 3 4 7 -18 138 -31 182 -8 27 -25 29 -129 22z m113 -97 c7 -33 13
-66 13 -72 1 -10 -23 -13 -89 -13 -49 0 -90 3 -90 6 0 11 32 129 37 137 3 4
30 7 61 5 l56 -3 12 -60z"/>
<path d="M791 9508 c-5 -13 -52 -115 -106 -228 -53 -113 -99 -211 -102 -218
-4 -10 7 -12 48 -10 51 3 55 5 72 41 l17 37 95 0 95 0 20 -40 c20 -39 22 -40
70 -40 28 0 50 2 50 4 0 16 -232 476 -240 476 -6 0 -14 -10 -19 -22z m53 -225
c14 -34 26 -67 26 -73 0 -6 -25 -10 -59 -10 l-59 0 26 80 c14 44 29 76 33 72
4 -4 19 -35 33 -69z"/>
<path d="M2090 9519 c-147 -29 -238 -186 -186 -322 50 -132 218 -191 362 -127
103 45 156 204 105 315 -19 42 -87 110 -124 124 -39 15 -111 19 -157 10z m154
-109 c42 -37 60 -87 53 -147 -6 -57 -31 -92 -88 -121 -102 -54 -229 22 -229
136 0 42 41 114 79 139 25 17 48 23 92 23 51 0 63 -4 93 -30z"/>
<path d="M1142 9283 l3 -238 138 -3 137 -3 0 41 0 40 -90 0 -90 0 0 200 0 200
-51 0 -50 0 3 -237z"/>
<path d="M1469 9392 c109 -238 160 -342 168 -342 4 1 23 35 42 78 19 42 67
144 108 226 40 82 73 153 73 158 0 4 -21 8 -46 8 l-45 0 -49 -102 c-27 -57
-56 -121 -65 -143 l-17 -40 -44 92 c-23 51 -51 115 -61 143 l-18 50 -52 0 -52
0 58 -128z"/>
<path d="M2330 8921 c0 -6 10 -10 23 -8 20 2 22 -2 20 -48 -1 -41 1 -46 8 -25
6 13 9 38 7 55 -2 24 -8 31 -30 33 -16 2 -28 -1 -28 -7z"/>
<path d="M627 8912 c6 -4 13 -28 16 -52 l4 -45 1 47 c1 26 7 49 15 51 6 3 -1
6 -18 6 -17 0 -25 -3 -18 -7z"/>
<path d="M750 8870 l0 -50 33 1 c30 2 30 2 5 6 -16 2 -28 10 -28 18 0 8 12 16
28 18 l27 4 -27 2 c-21 1 -28 6 -28 20 0 15 8 21 33 24 31 4 31 4 -5 5 l-38 2
0 -50z"/>
<path d="M891 8868 c1 -29 4 -43 6 -30 6 28 27 28 47 0 11 -16 16 -18 16 -7 0
20 -20 39 -42 39 -11 0 -18 7 -18 20 0 30 47 28 53 -2 4 -20 4 -19 6 5 1 25
-2 27 -34 27 l-35 0 1 -52z"/>
<path d="M1043 8908 c9 -7 18 -31 20 -53 l4 -40 1 47 c2 35 6 48 20 51 9 3 -1
5 -22 6 -34 1 -37 -1 -23 -11z"/>
<path d="M1160 8870 l0 -50 38 2 c36 1 36 1 5 5 -40 5 -44 30 -5 36 l27 4 -27
2 c-21 1 -28 6 -28 20 0 15 8 21 33 24 31 4 31 4 -5 5 l-38 2 0 -50z"/>
<path d="M1302 8913 c12 -3 18 -18 21 -51 l3 -47 2 47 c2 35 6 48 20 51 9 3
-1 5 -23 5 -22 0 -32 -2 -23 -5z"/>
<path d="M1423 8870 c0 -30 2 -43 4 -27 2 15 2 39 0 55 -2 15 -4 2 -4 -28z"/>
<path d="M1511 8869 c1 -45 3 -49 8 -21 l6 34 23 -31 c12 -17 27 -31 32 -31 6
0 9 24 8 53 l-1 52 -6 -45 -6 -45 -32 44 -33 44 1 -54z"/>
<path d="M1667 8913 c18 -4 23 -12 26 -51 l3 -47 2 47 c2 35 6 48 20 51 9 3
-3 5 -28 4 -25 0 -35 -2 -23 -4z"/>
<path d="M1860 8894 c-6 -16 -13 -36 -16 -44 -5 -10 -12 -3 -25 25 -10 22 -18
33 -18 25 0 -8 8 -31 19 -50 l18 -35 21 49 c12 27 19 51 17 54 -3 3 -10 -8
-16 -24z"/>
<path d="M1943 8875 c0 -27 2 -38 4 -22 2 15 2 37 0 50 -2 12 -4 0 -4 -28z"/>
<path d="M2025 8898 c9 -47 25 -79 35 -73 5 3 10 14 10 23 0 13 -2 14 -9 3 -6
-9 -13 -1 -25 30 -9 24 -14 32 -11 17z"/>
<path d="M2076 8905 c-3 -9 -6 -22 -5 -28 0 -7 5 -1 10 12 5 13 8 26 5 28 -2
2 -6 -3 -10 -12z"/>
<path d="M2198 8909 c6 -7 12 -25 12 -39 0 -14 -6 -32 -12 -40 -11 -12 -10
-12 5 0 22 16 20 81 -3 88 -12 4 -13 2 -2 -9z"/>
<path d="M2283 8870 c0 -30 2 -43 4 -27 2 15 2 39 0 55 -2 15 -4 2 -4 -28z"/>
<path d="M2141 8869 c-1 -15 7 -33 16 -40 13 -11 15 -11 9 -1 -5 8 -12 26 -16
40 l-8 27 -1 -26z"/>
<path d="M2342 8860 c0 -14 2 -19 5 -12 2 6 2 18 0 25 -3 6 -5 1 -5 -13z"/>
</g>
</svg>
